<svg xmlns="http://www.w3.org/2000/svg" width="256" height="256" viewBox="0 0 65 65" shape-rendering="crispEdges"><path fill="#ffffff" d="M0 0h65v65H0z"/><path stroke="#000000" d="M2 2.5h7m1 0h1m2 0h2m3 0h1m1 0h4m4 0h1m2 0h4m2 0h1m2 0h1m1 0h4m1 0h2m4 0h2m1 0h7M2 3.5h1m5 0h1m2 0h1m1 0h2m1 0h4m1 0h1m1 0h2m1 0h1m1 0h2m4 0h1m1 0h3m1 0h2m1 0h2m1 0h6m1 0h2m1 0h1m5 0h1M2 4.5h1m1 0h3m1 0h1m9 0h3m2 0h1m2 0h1m1 0h4m3 0h2m4 0h1m6 0h2m2 0h3m1 0h1m1 0h3m1 0h1M2 5.5h1m1 0h3m1 0h1m1 0h7m3 0h1m2 0h1m1 0h4m1 0h1m2 0h1m4 0h1m1 0h1m1 0h1m1 0h2m1 0h1m3 0h2m1 0h1m1 0h1m1 0h3m1 0h1M2 6.5h1m1 0h3m1 0h1m1 0h1m1 0h4m2 0h1m1 0h1m2 0h1m1 0h2m2 0h6m1 0h1m4 0h4m2 0h1m1 0h5m2 0h1m1 0h3m1 0h1M2 7.5h1m5 0h1m1 0h3m1 0h3m2 0h1m2 0h1m4 0h2m1 0h1m3 0h1m1 0h4m1 0h1m1 0h1m2 0h1m1 0h3m1 0h1m3 0h1m5 0h1M2 8.5h7m1 0h1m1 0h1m1 0h1m1 0h1m1 0h1m1 0h1m1 0h1m1 0h1m1 0h1m1 0h1m1 0h1m1 0h1m1 0h1m1 0h1m1 0h1m1 0h1m1 0h1m1 0h1m1 0h1m1 0h1m1 0h1m1 0h1m1 0h1m1 0h7M10 9.5h1m1 0h1m2 0h1m2 0h2m1 0h4m1 0h5m3 0h1m1 0h2m1 0h1m2 0h2m1 0h2m1 0h1m1 0h1m3 0h1M2 10.5h1m3 0h1m1 0h4m2 0h3m3 0h1m2 0h2m1 0h2m1 0h8m1 0h2m3 0h1m2 0h1m2 0h1m1 0h2m2 0h5m2 0h1M2 11.5h1m1 0h3m2 0h1m2 0h1m1 0h5m1 0h3m1 0h1m2 0h1m1 0h1m1 0h2m1 0h2m1 0h2m5 0h2m2 0h1m4 0h1m2 0h2m1 0h1m1 0h2M3 12.5h3m2 0h1m6 0h2m1 0h1m1 0h2m1 0h1m1 0h3m1 0h3m1 0h1m2 0h1m5 0h2m1 0h1m2 0h1m2 0h1m1 0h1m3 0h1m1 0h1m1 0h1M2 13.5h2m3 0h1m2 0h1m1 0h1m5 0h2m2 0h1m3 0h1m1 0h3m3 0h1m1 0h1m2 0h1m1 0h1m4 0h1m1 0h1m1 0h2m2 0h1m2 0h2m2 0h2M2 14.5h1m1 0h5m2 0h2m1 0h1m1 0h1m1 0h2m1 0h1m1 0h1m2 0h1m3 0h3m1 0h1m3 0h4m5 0h2m1 0h2m1 0h2m3 0h5M2 15.5h1m1 0h3m6 0h1m1 0h1m1 0h3m3 0h1m2 0h1m1 0h1m2 0h3m1 0h1m3 0h1m3 0h3m1 0h1m1 0h2m2 0h3m1 0h1M2 16.5h2m2 0h1m1 0h1m3 0h2m2 0h1m1 0h1m2 0h3m1 0h1m3 0h6m1 0h1m2 0h1m2 0h1m8 0h3m2 0h4m1 0h2M2 17.5h1m2 0h1m1 0h1m3 0h1m2 0h3m2 0h1m1 0h6m1 0h1m1 0h1m3 0h1m1 0h2m1 0h1m2 0h2m1 0h2m1 0h1m1 0h2m2 0h1m4 0h3M3 18.5h1m3 0h2m1 0h1m1 0h1m2 0h3m1 0h1m4 0h1m2 0h3m1 0h1m1 0h2m1 0h4m9 0h1m1 0h1m1 0h2m7 0h1M2 19.5h3m4 0h1m1 0h1m1 0h1m2 0h1m1 0h1m1 0h1m2 0h1m1 0h5m1 0h5m2 0h1m1 0h1m1 0h1m1 0h2m1 0h1m5 0h5m1 0h1m1 0h1M4 20.5h6m1 0h1m2 0h1m1 0h2m1 0h1m1 0h1m5 0h2m2 0h3m2 0h1m2 0h1m2 0h2m1 0h1m2 0h2m1 0h1m1 0h1m2 0h2m2 0h1m1 0h1M2 21.5h2m3 0h1m1 0h1m1 0h5m1 0h1m5 0h1m2 0h1m1 0h1m3 0h2m1 0h2m1 0h2m1 0h1m4 0h1m1 0h1m5 0h2m4 0h1m1 0h1M3 22.5h1m4 0h2m1 0h2m2 0h1m3 0h1m2 0h1m1 0h1m1 0h1m3 0h1m1 0h1m1 0h1m1 0h2m1 0h1m3 0h1m2 0h1m1 0h1m2 0h1m2 0h1m2 0h6M2 23.5h1m1 0h3m2 0h5m1 0h3m1 0h11m2 0h3m4 0h3m2 0h1m2 0h3m1 0h2m1 0h2m1 0h1m1 0h1m2 0h1M4 24.5h2m2 0h1m1 0h2m2 0h2m2 0h1m1 0h2m1 0h1m1 0h3m1 0h3m1 0h4m2 0h1m2 0h4m1 0h1m5 0h1m5 0h2M5 25.5h3m1 0h1m1 0h3m3 0h6m2 0h1m2 0h1m3 0h1m3 0h1m5 0h2m4 0h1m1 0h1m6 0h2m1 0h1m1 0h1M3 26.5h1m1 0h2m1 0h4m2 0h3m3 0h3m1 0h1m1 0h1m1 0h1m1 0h3m1 0h2m2 0h3m1 0h1m2 0h1m1 0h3m1 0h1m1 0h1m1 0h1m4 0h3M4 27.5h2m1 0h1m1 0h4m1 0h1m1 0h1m2 0h1m2 0h1m1 0h2m1 0h1m1 0h5m1 0h1m6 0h1m1 0h1m2 0h1m2 0h8m1 0h1m1 0h2M4 28.5h6m2 0h1m4 0h5m1 0h1m1 0h3m1 0h2m1 0h1m2 0h1m3 0h1m2 0h2m1 0h1m1 0h2m4 0h1m1 0h1m1 0h1m4 0h1M2 29.5h2m1 0h1m5 0h1m5 0h2m4 0h2m1 0h1m1 0h1m1 0h1m2 0h1m2 0h1m2 0h1m2 0h2m1 0h1m2 0h2m4 0h1m5 0h3M3 30.5h8m5 0h2m2 0h2m1 0h3m2 0h7m1 0h1m2 0h1m1 0h2m1 0h1m1 0h1m2 0h1m1 0h2m1 0h5m2 0h2M3 31.5h1m2 0h1m3 0h1m2 0h2m1 0h1m1 0h1m2 0h7m1 0h2m3 0h2m1 0h2m4 0h1m3 0h2m2 0h1m1 0h2m3 0h2m2 0h1M2 32.5h1m2 0h2m1 0h1m1 0h1m1 0h4m1 0h2m3 0h1m1 0h4m2 0h1m1 0h1m1 0h1m4 0h2m1 0h1m2 0h1m6 0h1m1 0h1m1 0h1m1 0h2m2 0h1M4 33.5h1m1 0h1m3 0h1m1 0h1m3 0h3m1 0h1m1 0h1m1 0h1m3 0h3m3 0h3m1 0h2m1 0h1m1 0h1m1 0h7m2 0h1m3 0h1m2 0h2M3 34.5h1m1 0h10m1 0h1m1 0h2m1 0h1m2 0h3m1 0h1m1 0h11m1 0h1m1 0h3m1 0h1m1 0h2m2 0h5m1 0h3M2 35.5h2m3 0h1m3 0h2m1 0h1m2 0h1m1 0h1m1 0h1m2 0h1m1 0h2m2 0h1m1 0h1m1 0h3m1 0h1m2 0h3m5 0h2m1 0h4m3 0h1m1 0h2M8 36.5h4m1 0h7m5 0h3m2 0h1m5 0h1m4 0h2m4 0h2m3 0h2m8 0h1M2 37.5h2m7 0h3m2 0h2m2 0h1m1 0h1m4 0h2m1 0h1m2 0h1m1 0h5m1 0h2m4 0h2m1 0h1m3 0h2m1 0h1m1 0h3M2 38.5h1m2 0h6m3 0h2m1 0h2m1 0h1m2 0h1m1 0h1m2 0h1m1 0h1m1 0h1m3 0h2m3 0h1m5 0h2m1 0h3m2 0h2m3 0h1m1 0h1M2 39.5h2m1 0h3m3 0h4m1 0h1m1 0h4m3 0h4m1 0h1m3 0h1m3 0h5m1 0h2m2 0h3m2 0h2M2 40.5h2m3 0h2m1 0h6m6 0h2m2 0h1m2 0h3m1 0h1m1 0h2m3 0h1m1 0h1m2 0h1m1 0h1m3 0h1m1 0h2m3 0h1m1 0h1M4 41.5h1m4 0h3m4 0h1m2 0h1m3 0h2m2 0h1m1 0h1m1 0h3m2 0h2m1 0h1m1 0h1m1 0h1m1 0h7m2 0h3m1 0h1m1 0h1M3 42.5h2m1 0h3m1 0h2m1 0h2m1 0h5m1 0h1m2 0h4m2 0h1m1 0h1m1 0h2m1 0h2m1 0h2m5 0h2m1 0h1m3 0h2m1 0h1m3 0h1M2 43.5h1m2 0h3m1 0h1m3 0h1m1 0h1m3 0h2m1 0h1m1 0h1m1 0h1m1 0h2m4 0h1m4 0h2m1 0h1m1 0h2m2 0h1m2 0h2m1 0h2m1 0h3m1 0h2M2 44.5h1m2 0h2m1 0h1m1 0h1m2 0h3m2 0h1m2 0h1m7 0h2m3 0h1m2 0h1m1 0h2m1 0h2m1 0h1m2 0h1m2 0h5m2 0h3M5 45.5h2m2 0h2m1 0h2m2 0h1m3 0h1m2 0h3m1 0h3m1 0h4m1 0h3m2 0h1m3 0h1m1 0h5m1 0h5m3 0h2M2 46.5h1m1 0h1m1 0h1m1 0h5m3 0h5m2 0h1m2 0h2m3 0h1m1 0h2m2 0h1m1 0h2m5 0h1m1 0h2m1 0h2m2 0h4m1 0h3M3 47.5h2m2 0h1m2 0h1m1 0h4m3 0h4m3 0h1m5 0h1m1 0h1m4 0h1m1 0h5m4 0h3m2 0h1m3 0h1m2 0h1M2 48.5h1m2 0h1m1 0h2m1 0h2m5 0h3m1 0h1m3 0h3m1 0h3m1 0h2m5 0h1m1 0h2m1 0h1m1 0h2m2 0h3m4 0h2m2 0h1M4 49.5h1m2 0h1m2 0h1m2 0h6m3 0h1m2 0h1m2 0h4m2 0h1m1 0h2m1 0h1m2 0h2m1 0h1m2 0h4m1 0h3m4 0h3M2 50.5h1m2 0h2m1 0h1m4 0h5m1 0h1m1 0h5m4 0h1m5 0h3m2 0h1m2 0h3m2 0h2m1 0h2m1 0h1m1 0h1m1 0h1m1 0h2M2 51.5h1m1 0h1m1 0h2m3 0h2m1 0h2m3 0h1m6 0h3m4 0h3m1 0h2m1 0h1m4 0h1m1 0h2m1 0h1m1 0h8m2 0h1M4 52.5h9m1 0h1m1 0h1m3 0h1m5 0h1m3 0h1m2 0h1m2 0h1m2 0h2m1 0h4m1 0h1m4 0h2m4 0h1m1 0h2M2 53.5h3m1 0h1m4 0h3m1 0h3m3 0h2m1 0h1m3 0h1m2 0h2m3 0h2m3 0h1m1 0h1m2 0h1m1 0h1m4 0h3m1 0h1m3 0h1M2 54.5h4m2 0h1m3 0h3m1 0h2m1 0h1m1 0h1m2 0h2m1 0h2m1 0h5m3 0h1m2 0h2m1 0h2m3 0h3m2 0h5m2 0h2M10 55.5h1m2 0h6m2 0h1m3 0h1m1 0h2m1 0h1m3 0h1m1 0h1m2 0h1m7 0h1m2 0h3m1 0h1m3 0h2m1 0h1M2 56.5h7m1 0h1m2 0h1m2 0h2m1 0h1m1 0h1m2 0h4m1 0h2m1 0h1m1 0h1m1 0h2m1 0h2m1 0h3m9 0h1m1 0h1m1 0h2m1 0h2M2 57.5h1m5 0h1m3 0h2m3 0h1m4 0h3m3 0h1m1 0h1m3 0h3m5 0h2m2 0h1m1 0h3m3 0h1m3 0h1m1 0h1m1 0h1M2 58.5h1m1 0h3m1 0h1m1 0h2m3 0h1m1 0h2m3 0h1m1 0h2m3 0h6m1 0h4m6 0h2m1 0h4m1 0h6m2 0h1M2 59.5h1m1 0h3m1 0h1m2 0h2m1 0h2m4 0h3m1 0h1m4 0h1m1 0h4m1 0h1m1 0h3m1 0h1m1 0h2m1 0h1m2 0h2m2 0h4m4 0h1M2 60.5h1m1 0h3m1 0h1m2 0h1m1 0h1m1 0h1m1 0h1m2 0h5m1 0h3m1 0h1m2 0h1m1 0h2m5 0h2m1 0h1m1 0h2m3 0h1m2 0h2m1 0h1m2 0h1M2 61.5h1m5 0h1m2 0h1m2 0h1m1 0h1m2 0h1m1 0h3m1 0h1m2 0h2m3 0h1m2 0h2m1 0h1m2 0h1m4 0h2m2 0h1m1 0h1m3 0h2m1 0h3M2 62.5h7m1 0h1m1 0h1m1 0h1m1 0h1m1 0h2m1 0h2m3 0h1m2 0h2m1 0h3m1 0h1m2 0h1m2 0h1m1 0h3m1 0h1m1 0h2m3 0h6m1 0h1"/></svg>
