<?xml version="1.0" standalone="yes"?>
<svg xmlns="http://www.w3.org/2000/svg" version="1.1" width="256" height="256">
  <rect x="0" y="0" width="256" height="256" style="fill:#ffffff;shape-rendering:crispEdges;"/>
  <rect x="24.975609756097562" y="24.975609756097562" width="6.2439024390243905" height="6.2439024390243905" style="fill:#000000;shape-rendering:crispEdges;"/>
  <rect x="31.21951219512195" y="24.975609756097562" width="6.2439024390243905" height="6.2439024390243905" style="fill:#000000;shape-rendering:crispEdges;"/>
  <rect x="37.463414634146346" y="24.975609756097562" width="6.2439024390243905" height="6.2439024390243905" style="fill:#000000;shape-rendering:crispEdges;"/>
  <rect x="43.707317073170735" y="24.975609756097562" width="6.2439024390243905" height="6.2439024390243905" style="fill:#000000;shape-rendering:crispEdges;"/>
  <rect x="49.951219512195124" y="24.975609756097562" width="6.2439024390243905" height="6.2439024390243905" style="fill:#000000;shape-rendering:crispEdges;"/>
  <rect x="56.19512195121951" y="24.975609756097562" width="6.2439024390243905" height="6.2439024390243905" style="fill:#000000;shape-rendering:crispEdges;"/>
  <rect x="62.43902439024391" y="24.975609756097562" width="6.2439024390243905" height="6.2439024390243905" style="fill:#000000;shape-rendering:crispEdges;"/>
  <rect x="74.92682926829269" y="24.975609756097562" width="6.2439024390243905" height="6.2439024390243905" style="fill:#000000;shape-rendering:crispEdges;"/>
  <rect x="81.17073170731707" y="24.975609756097562" width="6.2439024390243905" height="6.2439024390243905" style="fill:#000000;shape-rendering:crispEdges;"/>
  <rect x="99.90243902439025" y="24.975609756097562" width="6.2439024390243905" height="6.2439024390243905" style="fill:#000000;shape-rendering:crispEdges;"/>
  <rect x="106.14634146341464" y="24.975609756097562" width="6.2439024390243905" height="6.2439024390243905" style="fill:#000000;shape-rendering:crispEdges;"/>
  <rect x="124.8780487804878" y="24.975609756097562" width="6.2439024390243905" height="6.2439024390243905" style="fill:#000000;shape-rendering:crispEdges;"/>
  <rect x="131.1219512195122" y="24.975609756097562" width="6.2439024390243905" height="6.2439024390243905" style="fill:#000000;shape-rendering:crispEdges;"/>
  <rect x="137.3658536585366" y="24.975609756097562" width="6.2439024390243905" height="6.2439024390243905" style="fill:#000000;shape-rendering:crispEdges;"/>
  <rect x="143.609756097561" y="24.975609756097562" width="6.2439024390243905" height="6.2439024390243905" style="fill:#000000;shape-rendering:crispEdges;"/>
  <rect x="156.09756097560975" y="24.975609756097562" width="6.2439024390243905" height="6.2439024390243905" style="fill:#000000;shape-rendering:crispEdges;"/>
  <rect x="162.34146341463415" y="24.975609756097562" width="6.2439024390243905" height="6.2439024390243905" style="fill:#000000;shape-rendering:crispEdges;"/>
  <rect x="168.58536585365854" y="24.975609756097562" width="6.2439024390243905" height="6.2439024390243905" style="fill:#000000;shape-rendering:crispEdges;"/>
  <rect x="174.82926829268294" y="24.975609756097562" width="6.2439024390243905" height="6.2439024390243905" style="fill:#000000;shape-rendering:crispEdges;"/>
  <rect x="187.3170731707317" y="24.975609756097562" width="6.2439024390243905" height="6.2439024390243905" style="fill:#000000;shape-rendering:crispEdges;"/>
  <rect x="193.5609756097561" y="24.975609756097562" width="6.2439024390243905" height="6.2439024390243905" style="fill:#000000;shape-rendering:crispEdges;"/>
  <rect x="199.8048780487805" y="24.975609756097562" width="6.2439024390243905" height="6.2439024390243905" style="fill:#000000;shape-rendering:crispEdges;"/>
  <rect x="206.0487804878049" y="24.975609756097562" width="6.2439024390243905" height="6.2439024390243905" style="fill:#000000;shape-rendering:crispEdges;"/>
  <rect x="212.29268292682926" y="24.975609756097562" width="6.2439024390243905" height="6.2439024390243905" style="fill:#000000;shape-rendering:crispEdges;"/>
  <rect x="218.53658536585365" y="24.975609756097562" width="6.2439024390243905" height="6.2439024390243905" style="fill:#000000;shape-rendering:crispEdges;"/>
  <rect x="224.78048780487805" y="24.975609756097562" width="6.2439024390243905" height="6.2439024390243905" style="fill:#000000;shape-rendering:crispEdges;"/>
  <rect x="24.975609756097562" y="31.21951219512195" width="6.2439024390243905" height="6.2439024390243905" style="fill:#000000;shape-rendering:crispEdges;"/>
  <rect x="62.43902439024391" y="31.21951219512195" width="6.2439024390243905" height="6.2439024390243905" style="fill:#000000;shape-rendering:crispEdges;"/>
  <rect x="81.17073170731707" y="31.21951219512195" width="6.2439024390243905" height="6.2439024390243905" style="fill:#000000;shape-rendering:crispEdges;"/>
  <rect x="87.41463414634146" y="31.21951219512195" width="6.2439024390243905" height="6.2439024390243905" style="fill:#000000;shape-rendering:crispEdges;"/>
  <rect x="118.6341463414634" y="31.21951219512195" width="6.2439024390243905" height="6.2439024390243905" style="fill:#000000;shape-rendering:crispEdges;"/>
  <rect x="124.8780487804878" y="31.21951219512195" width="6.2439024390243905" height="6.2439024390243905" style="fill:#000000;shape-rendering:crispEdges;"/>
  <rect x="131.1219512195122" y="31.21951219512195" width="6.2439024390243905" height="6.2439024390243905" style="fill:#000000;shape-rendering:crispEdges;"/>
  <rect x="156.09756097560975" y="31.21951219512195" width="6.2439024390243905" height="6.2439024390243905" style="fill:#000000;shape-rendering:crispEdges;"/>
  <rect x="187.3170731707317" y="31.21951219512195" width="6.2439024390243905" height="6.2439024390243905" style="fill:#000000;shape-rendering:crispEdges;"/>
  <rect x="224.78048780487805" y="31.21951219512195" width="6.2439024390243905" height="6.2439024390243905" style="fill:#000000;shape-rendering:crispEdges;"/>
  <rect x="24.975609756097562" y="37.463414634146346" width="6.2439024390243905" height="6.2439024390243905" style="fill:#000000;shape-rendering:crispEdges;"/>
  <rect x="37.463414634146346" y="37.463414634146346" width="6.2439024390243905" height="6.2439024390243905" style="fill:#000000;shape-rendering:crispEdges;"/>
  <rect x="43.707317073170735" y="37.463414634146346" width="6.2439024390243905" height="6.2439024390243905" style="fill:#000000;shape-rendering:crispEdges;"/>
  <rect x="49.951219512195124" y="37.463414634146346" width="6.2439024390243905" height="6.2439024390243905" style="fill:#000000;shape-rendering:crispEdges;"/>
  <rect x="62.43902439024391" y="37.463414634146346" width="6.2439024390243905" height="6.2439024390243905" style="fill:#000000;shape-rendering:crispEdges;"/>
  <rect x="74.92682926829269" y="37.463414634146346" width="6.2439024390243905" height="6.2439024390243905" style="fill:#000000;shape-rendering:crispEdges;"/>
  <rect x="87.41463414634146" y="37.463414634146346" width="6.2439024390243905" height="6.2439024390243905" style="fill:#000000;shape-rendering:crispEdges;"/>
  <rect x="93.65853658536585" y="37.463414634146346" width="6.2439024390243905" height="6.2439024390243905" style="fill:#000000;shape-rendering:crispEdges;"/>
  <rect x="124.8780487804878" y="37.463414634146346" width="6.2439024390243905" height="6.2439024390243905" style="fill:#000000;shape-rendering:crispEdges;"/>
  <rect x="131.1219512195122" y="37.463414634146346" width="6.2439024390243905" height="6.2439024390243905" style="fill:#000000;shape-rendering:crispEdges;"/>
  <rect x="137.3658536585366" y="37.463414634146346" width="6.2439024390243905" height="6.2439024390243905" style="fill:#000000;shape-rendering:crispEdges;"/>
  <rect x="143.609756097561" y="37.463414634146346" width="6.2439024390243905" height="6.2439024390243905" style="fill:#000000;shape-rendering:crispEdges;"/>
  <rect x="149.85365853658536" y="37.463414634146346" width="6.2439024390243905" height="6.2439024390243905" style="fill:#000000;shape-rendering:crispEdges;"/>
  <rect x="162.34146341463415" y="37.463414634146346" width="6.2439024390243905" height="6.2439024390243905" style="fill:#000000;shape-rendering:crispEdges;"/>
  <rect x="168.58536585365854" y="37.463414634146346" width="6.2439024390243905" height="6.2439024390243905" style="fill:#000000;shape-rendering:crispEdges;"/>
  <rect x="174.82926829268294" y="37.463414634146346" width="6.2439024390243905" height="6.2439024390243905" style="fill:#000000;shape-rendering:crispEdges;"/>
  <rect x="187.3170731707317" y="37.463414634146346" width="6.2439024390243905" height="6.2439024390243905" style="fill:#000000;shape-rendering:crispEdges;"/>
  <rect x="199.8048780487805" y="37.463414634146346" width="6.2439024390243905" height="6.2439024390243905" style="fill:#000000;shape-rendering:crispEdges;"/>
  <rect x="206.0487804878049" y="37.463414634146346" width="6.2439024390243905" height="6.2439024390243905" style="fill:#000000;shape-rendering:crispEdges;"/>
  <rect x="212.29268292682926" y="37.463414634146346" width="6.2439024390243905" height="6.2439024390243905" style="fill:#000000;shape-rendering:crispEdges;"/>
  <rect x="224.78048780487805" y="37.463414634146346" width="6.2439024390243905" height="6.2439024390243905" style="fill:#000000;shape-rendering:crispEdges;"/>
  <rect x="24.975609756097562" y="43.707317073170735" width="6.2439024390243905" height="6.2439024390243905" style="fill:#000000;shape-rendering:crispEdges;"/>
  <rect x="37.463414634146346" y="43.707317073170735" width="6.2439024390243905" height="6.2439024390243905" style="fill:#000000;shape-rendering:crispEdges;"/>
  <rect x="43.707317073170735" y="43.707317073170735" width="6.2439024390243905" height="6.2439024390243905" style="fill:#000000;shape-rendering:crispEdges;"/>
  <rect x="49.951219512195124" y="43.707317073170735" width="6.2439024390243905" height="6.2439024390243905" style="fill:#000000;shape-rendering:crispEdges;"/>
  <rect x="62.43902439024391" y="43.707317073170735" width="6.2439024390243905" height="6.2439024390243905" style="fill:#000000;shape-rendering:crispEdges;"/>
  <rect x="74.92682926829269" y="43.707317073170735" width="6.2439024390243905" height="6.2439024390243905" style="fill:#000000;shape-rendering:crispEdges;"/>
  <rect x="81.17073170731707" y="43.707317073170735" width="6.2439024390243905" height="6.2439024390243905" style="fill:#000000;shape-rendering:crispEdges;"/>
  <rect x="87.41463414634146" y="43.707317073170735" width="6.2439024390243905" height="6.2439024390243905" style="fill:#000000;shape-rendering:crispEdges;"/>
  <rect x="93.65853658536585" y="43.707317073170735" width="6.2439024390243905" height="6.2439024390243905" style="fill:#000000;shape-rendering:crispEdges;"/>
  <rect x="106.14634146341464" y="43.707317073170735" width="6.2439024390243905" height="6.2439024390243905" style="fill:#000000;shape-rendering:crispEdges;"/>
  <rect x="112.39024390243904" y="43.707317073170735" width="6.2439024390243905" height="6.2439024390243905" style="fill:#000000;shape-rendering:crispEdges;"/>
  <rect x="124.8780487804878" y="43.707317073170735" width="6.2439024390243905" height="6.2439024390243905" style="fill:#000000;shape-rendering:crispEdges;"/>
  <rect x="131.1219512195122" y="43.707317073170735" width="6.2439024390243905" height="6.2439024390243905" style="fill:#000000;shape-rendering:crispEdges;"/>
  <rect x="149.85365853658536" y="43.707317073170735" width="6.2439024390243905" height="6.2439024390243905" style="fill:#000000;shape-rendering:crispEdges;"/>
  <rect x="156.09756097560975" y="43.707317073170735" width="6.2439024390243905" height="6.2439024390243905" style="fill:#000000;shape-rendering:crispEdges;"/>
  <rect x="168.58536585365854" y="43.707317073170735" width="6.2439024390243905" height="6.2439024390243905" style="fill:#000000;shape-rendering:crispEdges;"/>
  <rect x="187.3170731707317" y="43.707317073170735" width="6.2439024390243905" height="6.2439024390243905" style="fill:#000000;shape-rendering:crispEdges;"/>
  <rect x="199.8048780487805" y="43.707317073170735" width="6.2439024390243905" height="6.2439024390243905" style="fill:#000000;shape-rendering:crispEdges;"/>
  <rect x="206.0487804878049" y="43.707317073170735" width="6.2439024390243905" height="6.2439024390243905" style="fill:#000000;shape-rendering:crispEdges;"/>
  <rect x="212.29268292682926" y="43.707317073170735" width="6.2439024390243905" height="6.2439024390243905" style="fill:#000000;shape-rendering:crispEdges;"/>
  <rect x="224.78048780487805" y="43.707317073170735" width="6.2439024390243905" height="6.2439024390243905" style="fill:#000000;shape-rendering:crispEdges;"/>
  <rect x="24.975609756097562" y="49.951219512195124" width="6.2439024390243905" height="6.2439024390243905" style="fill:#000000;shape-rendering:crispEdges;"/>
  <rect x="37.463414634146346" y="49.951219512195124" width="6.2439024390243905" height="6.2439024390243905" style="fill:#000000;shape-rendering:crispEdges;"/>
  <rect x="43.707317073170735" y="49.951219512195124" width="6.2439024390243905" height="6.2439024390243905" style="fill:#000000;shape-rendering:crispEdges;"/>
  <rect x="49.951219512195124" y="49.951219512195124" width="6.2439024390243905" height="6.2439024390243905" style="fill:#000000;shape-rendering:crispEdges;"/>
  <rect x="62.43902439024391" y="49.951219512195124" width="6.2439024390243905" height="6.2439024390243905" style="fill:#000000;shape-rendering:crispEdges;"/>
  <rect x="74.92682926829269" y="49.951219512195124" width="6.2439024390243905" height="6.2439024390243905" style="fill:#000000;shape-rendering:crispEdges;"/>
  <rect x="81.17073170731707" y="49.951219512195124" width="6.2439024390243905" height="6.2439024390243905" style="fill:#000000;shape-rendering:crispEdges;"/>
  <rect x="87.41463414634146" y="49.951219512195124" width="6.2439024390243905" height="6.2439024390243905" style="fill:#000000;shape-rendering:crispEdges;"/>
  <rect x="93.65853658536585" y="49.951219512195124" width="6.2439024390243905" height="6.2439024390243905" style="fill:#000000;shape-rendering:crispEdges;"/>
  <rect x="143.609756097561" y="49.951219512195124" width="6.2439024390243905" height="6.2439024390243905" style="fill:#000000;shape-rendering:crispEdges;"/>
  <rect x="162.34146341463415" y="49.951219512195124" width="6.2439024390243905" height="6.2439024390243905" style="fill:#000000;shape-rendering:crispEdges;"/>
  <rect x="168.58536585365854" y="49.951219512195124" width="6.2439024390243905" height="6.2439024390243905" style="fill:#000000;shape-rendering:crispEdges;"/>
  <rect x="187.3170731707317" y="49.951219512195124" width="6.2439024390243905" height="6.2439024390243905" style="fill:#000000;shape-rendering:crispEdges;"/>
  <rect x="199.8048780487805" y="49.951219512195124" width="6.2439024390243905" height="6.2439024390243905" style="fill:#000000;shape-rendering:crispEdges;"/>
  <rect x="206.0487804878049" y="49.951219512195124" width="6.2439024390243905" height="6.2439024390243905" style="fill:#000000;shape-rendering:crispEdges;"/>
  <rect x="212.29268292682926" y="49.951219512195124" width="6.2439024390243905" height="6.2439024390243905" style="fill:#000000;shape-rendering:crispEdges;"/>
  <rect x="224.78048780487805" y="49.951219512195124" width="6.2439024390243905" height="6.2439024390243905" style="fill:#000000;shape-rendering:crispEdges;"/>
  <rect x="24.975609756097562" y="56.19512195121951" width="6.2439024390243905" height="6.2439024390243905" style="fill:#000000;shape-rendering:crispEdges;"/>
  <rect x="62.43902439024391" y="56.19512195121951" width="6.2439024390243905" height="6.2439024390243905" style="fill:#000000;shape-rendering:crispEdges;"/>
  <rect x="74.92682926829269" y="56.19512195121951" width="6.2439024390243905" height="6.2439024390243905" style="fill:#000000;shape-rendering:crispEdges;"/>
  <rect x="81.17073170731707" y="56.19512195121951" width="6.2439024390243905" height="6.2439024390243905" style="fill:#000000;shape-rendering:crispEdges;"/>
  <rect x="87.41463414634146" y="56.19512195121951" width="6.2439024390243905" height="6.2439024390243905" style="fill:#000000;shape-rendering:crispEdges;"/>
  <rect x="93.65853658536585" y="56.19512195121951" width="6.2439024390243905" height="6.2439024390243905" style="fill:#000000;shape-rendering:crispEdges;"/>
  <rect x="106.14634146341464" y="56.19512195121951" width="6.2439024390243905" height="6.2439024390243905" style="fill:#000000;shape-rendering:crispEdges;"/>
  <rect x="118.6341463414634" y="56.19512195121951" width="6.2439024390243905" height="6.2439024390243905" style="fill:#000000;shape-rendering:crispEdges;"/>
  <rect x="131.1219512195122" y="56.19512195121951" width="6.2439024390243905" height="6.2439024390243905" style="fill:#000000;shape-rendering:crispEdges;"/>
  <rect x="143.609756097561" y="56.19512195121951" width="6.2439024390243905" height="6.2439024390243905" style="fill:#000000;shape-rendering:crispEdges;"/>
  <rect x="149.85365853658536" y="56.19512195121951" width="6.2439024390243905" height="6.2439024390243905" style="fill:#000000;shape-rendering:crispEdges;"/>
  <rect x="156.09756097560975" y="56.19512195121951" width="6.2439024390243905" height="6.2439024390243905" style="fill:#000000;shape-rendering:crispEdges;"/>
  <rect x="168.58536585365854" y="56.19512195121951" width="6.2439024390243905" height="6.2439024390243905" style="fill:#000000;shape-rendering:crispEdges;"/>
  <rect x="187.3170731707317" y="56.19512195121951" width="6.2439024390243905" height="6.2439024390243905" style="fill:#000000;shape-rendering:crispEdges;"/>
  <rect x="224.78048780487805" y="56.19512195121951" width="6.2439024390243905" height="6.2439024390243905" style="fill:#000000;shape-rendering:crispEdges;"/>
  <rect x="24.975609756097562" y="62.43902439024391" width="6.2439024390243905" height="6.2439024390243905" style="fill:#000000;shape-rendering:crispEdges;"/>
  <rect x="31.21951219512195" y="62.43902439024391" width="6.2439024390243905" height="6.2439024390243905" style="fill:#000000;shape-rendering:crispEdges;"/>
  <rect x="37.463414634146346" y="62.43902439024391" width="6.2439024390243905" height="6.2439024390243905" style="fill:#000000;shape-rendering:crispEdges;"/>
  <rect x="43.707317073170735" y="62.43902439024391" width="6.2439024390243905" height="6.2439024390243905" style="fill:#000000;shape-rendering:crispEdges;"/>
  <rect x="49.951219512195124" y="62.43902439024391" width="6.2439024390243905" height="6.2439024390243905" style="fill:#000000;shape-rendering:crispEdges;"/>
  <rect x="56.19512195121951" y="62.43902439024391" width="6.2439024390243905" height="6.2439024390243905" style="fill:#000000;shape-rendering:crispEdges;"/>
  <rect x="62.43902439024391" y="62.43902439024391" width="6.2439024390243905" height="6.2439024390243905" style="fill:#000000;shape-rendering:crispEdges;"/>
  <rect x="74.92682926829269" y="62.43902439024391" width="6.2439024390243905" height="6.2439024390243905" style="fill:#000000;shape-rendering:crispEdges;"/>
  <rect x="87.41463414634146" y="62.43902439024391" width="6.2439024390243905" height="6.2439024390243905" style="fill:#000000;shape-rendering:crispEdges;"/>
  <rect x="99.90243902439025" y="62.43902439024391" width="6.2439024390243905" height="6.2439024390243905" style="fill:#000000;shape-rendering:crispEdges;"/>
  <rect x="112.39024390243904" y="62.43902439024391" width="6.2439024390243905" height="6.2439024390243905" style="fill:#000000;shape-rendering:crispEdges;"/>
  <rect x="124.8780487804878" y="62.43902439024391" width="6.2439024390243905" height="6.2439024390243905" style="fill:#000000;shape-rendering:crispEdges;"/>
  <rect x="137.3658536585366" y="62.43902439024391" width="6.2439024390243905" height="6.2439024390243905" style="fill:#000000;shape-rendering:crispEdges;"/>
  <rect x="149.85365853658536" y="62.43902439024391" width="6.2439024390243905" height="6.2439024390243905" style="fill:#000000;shape-rendering:crispEdges;"/>
  <rect x="162.34146341463415" y="62.43902439024391" width="6.2439024390243905" height="6.2439024390243905" style="fill:#000000;shape-rendering:crispEdges;"/>
  <rect x="174.82926829268294" y="62.43902439024391" width="6.2439024390243905" height="6.2439024390243905" style="fill:#000000;shape-rendering:crispEdges;"/>
  <rect x="187.3170731707317" y="62.43902439024391" width="6.2439024390243905" height="6.2439024390243905" style="fill:#000000;shape-rendering:crispEdges;"/>
  <rect x="193.5609756097561" y="62.43902439024391" width="6.2439024390243905" height="6.2439024390243905" style="fill:#000000;shape-rendering:crispEdges;"/>
  <rect x="199.8048780487805" y="62.43902439024391" width="6.2439024390243905" height="6.2439024390243905" style="fill:#000000;shape-rendering:crispEdges;"/>
  <rect x="206.0487804878049" y="62.43902439024391" width="6.2439024390243905" height="6.2439024390243905" style="fill:#000000;shape-rendering:crispEdges;"/>
  <rect x="212.29268292682926" y="62.43902439024391" width="6.2439024390243905" height="6.2439024390243905" style="fill:#000000;shape-rendering:crispEdges;"/>
  <rect x="218.53658536585365" y="62.43902439024391" width="6.2439024390243905" height="6.2439024390243905" style="fill:#000000;shape-rendering:crispEdges;"/>
  <rect x="224.78048780487805" y="62.43902439024391" width="6.2439024390243905" height="6.2439024390243905" style="fill:#000000;shape-rendering:crispEdges;"/>
  <rect x="81.17073170731707" y="68.6829268292683" width="6.2439024390243905" height="6.2439024390243905" style="fill:#000000;shape-rendering:crispEdges;"/>
  <rect x="99.90243902439025" y="68.6829268292683" width="6.2439024390243905" height="6.2439024390243905" style="fill:#000000;shape-rendering:crispEdges;"/>
  <rect x="106.14634146341464" y="68.6829268292683" width="6.2439024390243905" height="6.2439024390243905" style="fill:#000000;shape-rendering:crispEdges;"/>
  <rect x="112.39024390243904" y="68.6829268292683" width="6.2439024390243905" height="6.2439024390243905" style="fill:#000000;shape-rendering:crispEdges;"/>
  <rect x="124.8780487804878" y="68.6829268292683" width="6.2439024390243905" height="6.2439024390243905" style="fill:#000000;shape-rendering:crispEdges;"/>
  <rect x="131.1219512195122" y="68.6829268292683" width="6.2439024390243905" height="6.2439024390243905" style="fill:#000000;shape-rendering:crispEdges;"/>
  <rect x="156.09756097560975" y="68.6829268292683" width="6.2439024390243905" height="6.2439024390243905" style="fill:#000000;shape-rendering:crispEdges;"/>
  <rect x="168.58536585365854" y="68.6829268292683" width="6.2439024390243905" height="6.2439024390243905" style="fill:#000000;shape-rendering:crispEdges;"/>
  <rect x="174.82926829268294" y="68.6829268292683" width="6.2439024390243905" height="6.2439024390243905" style="fill:#000000;shape-rendering:crispEdges;"/>
  <rect x="37.463414634146346" y="74.92682926829269" width="6.2439024390243905" height="6.2439024390243905" style="fill:#000000;shape-rendering:crispEdges;"/>
  <rect x="43.707317073170735" y="74.92682926829269" width="6.2439024390243905" height="6.2439024390243905" style="fill:#000000;shape-rendering:crispEdges;"/>
  <rect x="49.951219512195124" y="74.92682926829269" width="6.2439024390243905" height="6.2439024390243905" style="fill:#000000;shape-rendering:crispEdges;"/>
  <rect x="56.19512195121951" y="74.92682926829269" width="6.2439024390243905" height="6.2439024390243905" style="fill:#000000;shape-rendering:crispEdges;"/>
  <rect x="62.43902439024391" y="74.92682926829269" width="6.2439024390243905" height="6.2439024390243905" style="fill:#000000;shape-rendering:crispEdges;"/>
  <rect x="68.6829268292683" y="74.92682926829269" width="6.2439024390243905" height="6.2439024390243905" style="fill:#000000;shape-rendering:crispEdges;"/>
  <rect x="81.17073170731707" y="74.92682926829269" width="6.2439024390243905" height="6.2439024390243905" style="fill:#000000;shape-rendering:crispEdges;"/>
  <rect x="93.65853658536585" y="74.92682926829269" width="6.2439024390243905" height="6.2439024390243905" style="fill:#000000;shape-rendering:crispEdges;"/>
  <rect x="106.14634146341464" y="74.92682926829269" width="6.2439024390243905" height="6.2439024390243905" style="fill:#000000;shape-rendering:crispEdges;"/>
  <rect x="124.8780487804878" y="74.92682926829269" width="6.2439024390243905" height="6.2439024390243905" style="fill:#000000;shape-rendering:crispEdges;"/>
  <rect x="131.1219512195122" y="74.92682926829269" width="6.2439024390243905" height="6.2439024390243905" style="fill:#000000;shape-rendering:crispEdges;"/>
  <rect x="137.3658536585366" y="74.92682926829269" width="6.2439024390243905" height="6.2439024390243905" style="fill:#000000;shape-rendering:crispEdges;"/>
  <rect x="143.609756097561" y="74.92682926829269" width="6.2439024390243905" height="6.2439024390243905" style="fill:#000000;shape-rendering:crispEdges;"/>
  <rect x="162.34146341463415" y="74.92682926829269" width="6.2439024390243905" height="6.2439024390243905" style="fill:#000000;shape-rendering:crispEdges;"/>
  <rect x="174.82926829268294" y="74.92682926829269" width="6.2439024390243905" height="6.2439024390243905" style="fill:#000000;shape-rendering:crispEdges;"/>
  <rect x="181.0731707317073" y="74.92682926829269" width="6.2439024390243905" height="6.2439024390243905" style="fill:#000000;shape-rendering:crispEdges;"/>
  <rect x="193.5609756097561" y="74.92682926829269" width="6.2439024390243905" height="6.2439024390243905" style="fill:#000000;shape-rendering:crispEdges;"/>
  <rect x="199.8048780487805" y="74.92682926829269" width="6.2439024390243905" height="6.2439024390243905" style="fill:#000000;shape-rendering:crispEdges;"/>
  <rect x="206.0487804878049" y="74.92682926829269" width="6.2439024390243905" height="6.2439024390243905" style="fill:#000000;shape-rendering:crispEdges;"/>
  <rect x="212.29268292682926" y="74.92682926829269" width="6.2439024390243905" height="6.2439024390243905" style="fill:#000000;shape-rendering:crispEdges;"/>
  <rect x="224.78048780487805" y="74.92682926829269" width="6.2439024390243905" height="6.2439024390243905" style="fill:#000000;shape-rendering:crispEdges;"/>
  <rect x="24.975609756097562" y="81.17073170731707" width="6.2439024390243905" height="6.2439024390243905" style="fill:#000000;shape-rendering:crispEdges;"/>
  <rect x="56.19512195121951" y="81.17073170731707" width="6.2439024390243905" height="6.2439024390243905" style="fill:#000000;shape-rendering:crispEdges;"/>
  <rect x="74.92682926829269" y="81.17073170731707" width="6.2439024390243905" height="6.2439024390243905" style="fill:#000000;shape-rendering:crispEdges;"/>
  <rect x="87.41463414634146" y="81.17073170731707" width="6.2439024390243905" height="6.2439024390243905" style="fill:#000000;shape-rendering:crispEdges;"/>
  <rect x="99.90243902439025" y="81.17073170731707" width="6.2439024390243905" height="6.2439024390243905" style="fill:#000000;shape-rendering:crispEdges;"/>
  <rect x="118.6341463414634" y="81.17073170731707" width="6.2439024390243905" height="6.2439024390243905" style="fill:#000000;shape-rendering:crispEdges;"/>
  <rect x="124.8780487804878" y="81.17073170731707" width="6.2439024390243905" height="6.2439024390243905" style="fill:#000000;shape-rendering:crispEdges;"/>
  <rect x="131.1219512195122" y="81.17073170731707" width="6.2439024390243905" height="6.2439024390243905" style="fill:#000000;shape-rendering:crispEdges;"/>
  <rect x="137.3658536585366" y="81.17073170731707" width="6.2439024390243905" height="6.2439024390243905" style="fill:#000000;shape-rendering:crispEdges;"/>
  <rect x="149.85365853658536" y="81.17073170731707" width="6.2439024390243905" height="6.2439024390243905" style="fill:#000000;shape-rendering:crispEdges;"/>
  <rect x="181.0731707317073" y="81.17073170731707" width="6.2439024390243905" height="6.2439024390243905" style="fill:#000000;shape-rendering:crispEdges;"/>
  <rect x="187.3170731707317" y="81.17073170731707" width="6.2439024390243905" height="6.2439024390243905" style="fill:#000000;shape-rendering:crispEdges;"/>
  <rect x="193.5609756097561" y="81.17073170731707" width="6.2439024390243905" height="6.2439024390243905" style="fill:#000000;shape-rendering:crispEdges;"/>
  <rect x="199.8048780487805" y="81.17073170731707" width="6.2439024390243905" height="6.2439024390243905" style="fill:#000000;shape-rendering:crispEdges;"/>
  <rect x="206.0487804878049" y="81.17073170731707" width="6.2439024390243905" height="6.2439024390243905" style="fill:#000000;shape-rendering:crispEdges;"/>
  <rect x="212.29268292682926" y="81.17073170731707" width="6.2439024390243905" height="6.2439024390243905" style="fill:#000000;shape-rendering:crispEdges;"/>
  <rect x="224.78048780487805" y="81.17073170731707" width="6.2439024390243905" height="6.2439024390243905" style="fill:#000000;shape-rendering:crispEdges;"/>
  <rect x="43.707317073170735" y="87.41463414634146" width="6.2439024390243905" height="6.2439024390243905" style="fill:#000000;shape-rendering:crispEdges;"/>
  <rect x="49.951219512195124" y="87.41463414634146" width="6.2439024390243905" height="6.2439024390243905" style="fill:#000000;shape-rendering:crispEdges;"/>
  <rect x="62.43902439024391" y="87.41463414634146" width="6.2439024390243905" height="6.2439024390243905" style="fill:#000000;shape-rendering:crispEdges;"/>
  <rect x="87.41463414634146" y="87.41463414634146" width="6.2439024390243905" height="6.2439024390243905" style="fill:#000000;shape-rendering:crispEdges;"/>
  <rect x="93.65853658536585" y="87.41463414634146" width="6.2439024390243905" height="6.2439024390243905" style="fill:#000000;shape-rendering:crispEdges;"/>
  <rect x="99.90243902439025" y="87.41463414634146" width="6.2439024390243905" height="6.2439024390243905" style="fill:#000000;shape-rendering:crispEdges;"/>
  <rect x="112.39024390243904" y="87.41463414634146" width="6.2439024390243905" height="6.2439024390243905" style="fill:#000000;shape-rendering:crispEdges;"/>
  <rect x="118.6341463414634" y="87.41463414634146" width="6.2439024390243905" height="6.2439024390243905" style="fill:#000000;shape-rendering:crispEdges;"/>
  <rect x="137.3658536585366" y="87.41463414634146" width="6.2439024390243905" height="6.2439024390243905" style="fill:#000000;shape-rendering:crispEdges;"/>
  <rect x="156.09756097560975" y="87.41463414634146" width="6.2439024390243905" height="6.2439024390243905" style="fill:#000000;shape-rendering:crispEdges;"/>
  <rect x="168.58536585365854" y="87.41463414634146" width="6.2439024390243905" height="6.2439024390243905" style="fill:#000000;shape-rendering:crispEdges;"/>
  <rect x="187.3170731707317" y="87.41463414634146" width="6.2439024390243905" height="6.2439024390243905" style="fill:#000000;shape-rendering:crispEdges;"/>
  <rect x="199.8048780487805" y="87.41463414634146" width="6.2439024390243905" height="6.2439024390243905" style="fill:#000000;shape-rendering:crispEdges;"/>
  <rect x="212.29268292682926" y="87.41463414634146" width="6.2439024390243905" height="6.2439024390243905" style="fill:#000000;shape-rendering:crispEdges;"/>
  <rect x="31.21951219512195" y="93.65853658536585" width="6.2439024390243905" height="6.2439024390243905" style="fill:#000000;shape-rendering:crispEdges;"/>
  <rect x="56.19512195121951" y="93.65853658536585" width="6.2439024390243905" height="6.2439024390243905" style="fill:#000000;shape-rendering:crispEdges;"/>
  <rect x="68.6829268292683" y="93.65853658536585" width="6.2439024390243905" height="6.2439024390243905" style="fill:#000000;shape-rendering:crispEdges;"/>
  <rect x="106.14634146341464" y="93.65853658536585" width="6.2439024390243905" height="6.2439024390243905" style="fill:#000000;shape-rendering:crispEdges;"/>
  <rect x="112.39024390243904" y="93.65853658536585" width="6.2439024390243905" height="6.2439024390243905" style="fill:#000000;shape-rendering:crispEdges;"/>
  <rect x="118.6341463414634" y="93.65853658536585" width="6.2439024390243905" height="6.2439024390243905" style="fill:#000000;shape-rendering:crispEdges;"/>
  <rect x="137.3658536585366" y="93.65853658536585" width="6.2439024390243905" height="6.2439024390243905" style="fill:#000000;shape-rendering:crispEdges;"/>
  <rect x="143.609756097561" y="93.65853658536585" width="6.2439024390243905" height="6.2439024390243905" style="fill:#000000;shape-rendering:crispEdges;"/>
  <rect x="149.85365853658536" y="93.65853658536585" width="6.2439024390243905" height="6.2439024390243905" style="fill:#000000;shape-rendering:crispEdges;"/>
  <rect x="156.09756097560975" y="93.65853658536585" width="6.2439024390243905" height="6.2439024390243905" style="fill:#000000;shape-rendering:crispEdges;"/>
  <rect x="168.58536585365854" y="93.65853658536585" width="6.2439024390243905" height="6.2439024390243905" style="fill:#000000;shape-rendering:crispEdges;"/>
  <rect x="187.3170731707317" y="93.65853658536585" width="6.2439024390243905" height="6.2439024390243905" style="fill:#000000;shape-rendering:crispEdges;"/>
  <rect x="31.21951219512195" y="99.90243902439025" width="6.2439024390243905" height="6.2439024390243905" style="fill:#000000;shape-rendering:crispEdges;"/>
  <rect x="43.707317073170735" y="99.90243902439025" width="6.2439024390243905" height="6.2439024390243905" style="fill:#000000;shape-rendering:crispEdges;"/>
  <rect x="49.951219512195124" y="99.90243902439025" width="6.2439024390243905" height="6.2439024390243905" style="fill:#000000;shape-rendering:crispEdges;"/>
  <rect x="56.19512195121951" y="99.90243902439025" width="6.2439024390243905" height="6.2439024390243905" style="fill:#000000;shape-rendering:crispEdges;"/>
  <rect x="62.43902439024391" y="99.90243902439025" width="6.2439024390243905" height="6.2439024390243905" style="fill:#000000;shape-rendering:crispEdges;"/>
  <rect x="68.6829268292683" y="99.90243902439025" width="6.2439024390243905" height="6.2439024390243905" style="fill:#000000;shape-rendering:crispEdges;"/>
  <rect x="74.92682926829269" y="99.90243902439025" width="6.2439024390243905" height="6.2439024390243905" style="fill:#000000;shape-rendering:crispEdges;"/>
  <rect x="87.41463414634146" y="99.90243902439025" width="6.2439024390243905" height="6.2439024390243905" style="fill:#000000;shape-rendering:crispEdges;"/>
  <rect x="93.65853658536585" y="99.90243902439025" width="6.2439024390243905" height="6.2439024390243905" style="fill:#000000;shape-rendering:crispEdges;"/>
  <rect x="99.90243902439025" y="99.90243902439025" width="6.2439024390243905" height="6.2439024390243905" style="fill:#000000;shape-rendering:crispEdges;"/>
  <rect x="106.14634146341464" y="99.90243902439025" width="6.2439024390243905" height="6.2439024390243905" style="fill:#000000;shape-rendering:crispEdges;"/>
  <rect x="112.39024390243904" y="99.90243902439025" width="6.2439024390243905" height="6.2439024390243905" style="fill:#000000;shape-rendering:crispEdges;"/>
  <rect x="131.1219512195122" y="99.90243902439025" width="6.2439024390243905" height="6.2439024390243905" style="fill:#000000;shape-rendering:crispEdges;"/>
  <rect x="143.609756097561" y="99.90243902439025" width="6.2439024390243905" height="6.2439024390243905" style="fill:#000000;shape-rendering:crispEdges;"/>
  <rect x="149.85365853658536" y="99.90243902439025" width="6.2439024390243905" height="6.2439024390243905" style="fill:#000000;shape-rendering:crispEdges;"/>
  <rect x="162.34146341463415" y="99.90243902439025" width="6.2439024390243905" height="6.2439024390243905" style="fill:#000000;shape-rendering:crispEdges;"/>
  <rect x="174.82926829268294" y="99.90243902439025" width="6.2439024390243905" height="6.2439024390243905" style="fill:#000000;shape-rendering:crispEdges;"/>
  <rect x="181.0731707317073" y="99.90243902439025" width="6.2439024390243905" height="6.2439024390243905" style="fill:#000000;shape-rendering:crispEdges;"/>
  <rect x="199.8048780487805" y="99.90243902439025" width="6.2439024390243905" height="6.2439024390243905" style="fill:#000000;shape-rendering:crispEdges;"/>
  <rect x="218.53658536585365" y="99.90243902439025" width="6.2439024390243905" height="6.2439024390243905" style="fill:#000000;shape-rendering:crispEdges;"/>
  <rect x="224.78048780487805" y="99.90243902439025" width="6.2439024390243905" height="6.2439024390243905" style="fill:#000000;shape-rendering:crispEdges;"/>
  <rect x="49.951219512195124" y="106.14634146341464" width="6.2439024390243905" height="6.2439024390243905" style="fill:#000000;shape-rendering:crispEdges;"/>
  <rect x="74.92682926829269" y="106.14634146341464" width="6.2439024390243905" height="6.2439024390243905" style="fill:#000000;shape-rendering:crispEdges;"/>
  <rect x="81.17073170731707" y="106.14634146341464" width="6.2439024390243905" height="6.2439024390243905" style="fill:#000000;shape-rendering:crispEdges;"/>
  <rect x="87.41463414634146" y="106.14634146341464" width="6.2439024390243905" height="6.2439024390243905" style="fill:#000000;shape-rendering:crispEdges;"/>
  <rect x="93.65853658536585" y="106.14634146341464" width="6.2439024390243905" height="6.2439024390243905" style="fill:#000000;shape-rendering:crispEdges;"/>
  <rect x="106.14634146341464" y="106.14634146341464" width="6.2439024390243905" height="6.2439024390243905" style="fill:#000000;shape-rendering:crispEdges;"/>
  <rect x="112.39024390243904" y="106.14634146341464" width="6.2439024390243905" height="6.2439024390243905" style="fill:#000000;shape-rendering:crispEdges;"/>
  <rect x="124.8780487804878" y="106.14634146341464" width="6.2439024390243905" height="6.2439024390243905" style="fill:#000000;shape-rendering:crispEdges;"/>
  <rect x="143.609756097561" y="106.14634146341464" width="6.2439024390243905" height="6.2439024390243905" style="fill:#000000;shape-rendering:crispEdges;"/>
  <rect x="168.58536585365854" y="106.14634146341464" width="6.2439024390243905" height="6.2439024390243905" style="fill:#000000;shape-rendering:crispEdges;"/>
  <rect x="174.82926829268294" y="106.14634146341464" width="6.2439024390243905" height="6.2439024390243905" style="fill:#000000;shape-rendering:crispEdges;"/>
  <rect x="181.0731707317073" y="106.14634146341464" width="6.2439024390243905" height="6.2439024390243905" style="fill:#000000;shape-rendering:crispEdges;"/>
  <rect x="187.3170731707317" y="106.14634146341464" width="6.2439024390243905" height="6.2439024390243905" style="fill:#000000;shape-rendering:crispEdges;"/>
  <rect x="193.5609756097561" y="106.14634146341464" width="6.2439024390243905" height="6.2439024390243905" style="fill:#000000;shape-rendering:crispEdges;"/>
  <rect x="206.0487804878049" y="106.14634146341464" width="6.2439024390243905" height="6.2439024390243905" style="fill:#000000;shape-rendering:crispEdges;"/>
  <rect x="212.29268292682926" y="106.14634146341464" width="6.2439024390243905" height="6.2439024390243905" style="fill:#000000;shape-rendering:crispEdges;"/>
  <rect x="218.53658536585365" y="106.14634146341464" width="6.2439024390243905" height="6.2439024390243905" style="fill:#000000;shape-rendering:crispEdges;"/>
  <rect x="224.78048780487805" y="106.14634146341464" width="6.2439024390243905" height="6.2439024390243905" style="fill:#000000;shape-rendering:crispEdges;"/>
  <rect x="37.463414634146346" y="112.39024390243904" width="6.2439024390243905" height="6.2439024390243905" style="fill:#000000;shape-rendering:crispEdges;"/>
  <rect x="49.951219512195124" y="112.39024390243904" width="6.2439024390243905" height="6.2439024390243905" style="fill:#000000;shape-rendering:crispEdges;"/>
  <rect x="56.19512195121951" y="112.39024390243904" width="6.2439024390243905" height="6.2439024390243905" style="fill:#000000;shape-rendering:crispEdges;"/>
  <rect x="62.43902439024391" y="112.39024390243904" width="6.2439024390243905" height="6.2439024390243905" style="fill:#000000;shape-rendering:crispEdges;"/>
  <rect x="74.92682926829269" y="112.39024390243904" width="6.2439024390243905" height="6.2439024390243905" style="fill:#000000;shape-rendering:crispEdges;"/>
  <rect x="87.41463414634146" y="112.39024390243904" width="6.2439024390243905" height="6.2439024390243905" style="fill:#000000;shape-rendering:crispEdges;"/>
  <rect x="99.90243902439025" y="112.39024390243904" width="6.2439024390243905" height="6.2439024390243905" style="fill:#000000;shape-rendering:crispEdges;"/>
  <rect x="124.8780487804878" y="112.39024390243904" width="6.2439024390243905" height="6.2439024390243905" style="fill:#000000;shape-rendering:crispEdges;"/>
  <rect x="137.3658536585366" y="112.39024390243904" width="6.2439024390243905" height="6.2439024390243905" style="fill:#000000;shape-rendering:crispEdges;"/>
  <rect x="143.609756097561" y="112.39024390243904" width="6.2439024390243905" height="6.2439024390243905" style="fill:#000000;shape-rendering:crispEdges;"/>
  <rect x="149.85365853658536" y="112.39024390243904" width="6.2439024390243905" height="6.2439024390243905" style="fill:#000000;shape-rendering:crispEdges;"/>
  <rect x="156.09756097560975" y="112.39024390243904" width="6.2439024390243905" height="6.2439024390243905" style="fill:#000000;shape-rendering:crispEdges;"/>
  <rect x="168.58536585365854" y="112.39024390243904" width="6.2439024390243905" height="6.2439024390243905" style="fill:#000000;shape-rendering:crispEdges;"/>
  <rect x="174.82926829268294" y="112.39024390243904" width="6.2439024390243905" height="6.2439024390243905" style="fill:#000000;shape-rendering:crispEdges;"/>
  <rect x="181.0731707317073" y="112.39024390243904" width="6.2439024390243905" height="6.2439024390243905" style="fill:#000000;shape-rendering:crispEdges;"/>
  <rect x="187.3170731707317" y="112.39024390243904" width="6.2439024390243905" height="6.2439024390243905" style="fill:#000000;shape-rendering:crispEdges;"/>
  <rect x="193.5609756097561" y="112.39024390243904" width="6.2439024390243905" height="6.2439024390243905" style="fill:#000000;shape-rendering:crispEdges;"/>
  <rect x="199.8048780487805" y="112.39024390243904" width="6.2439024390243905" height="6.2439024390243905" style="fill:#000000;shape-rendering:crispEdges;"/>
  <rect x="206.0487804878049" y="112.39024390243904" width="6.2439024390243905" height="6.2439024390243905" style="fill:#000000;shape-rendering:crispEdges;"/>
  <rect x="31.21951219512195" y="118.6341463414634" width="6.2439024390243905" height="6.2439024390243905" style="fill:#000000;shape-rendering:crispEdges;"/>
  <rect x="37.463414634146346" y="118.6341463414634" width="6.2439024390243905" height="6.2439024390243905" style="fill:#000000;shape-rendering:crispEdges;"/>
  <rect x="43.707317073170735" y="118.6341463414634" width="6.2439024390243905" height="6.2439024390243905" style="fill:#000000;shape-rendering:crispEdges;"/>
  <rect x="49.951219512195124" y="118.6341463414634" width="6.2439024390243905" height="6.2439024390243905" style="fill:#000000;shape-rendering:crispEdges;"/>
  <rect x="81.17073170731707" y="118.6341463414634" width="6.2439024390243905" height="6.2439024390243905" style="fill:#000000;shape-rendering:crispEdges;"/>
  <rect x="87.41463414634146" y="118.6341463414634" width="6.2439024390243905" height="6.2439024390243905" style="fill:#000000;shape-rendering:crispEdges;"/>
  <rect x="99.90243902439025" y="118.6341463414634" width="6.2439024390243905" height="6.2439024390243905" style="fill:#000000;shape-rendering:crispEdges;"/>
  <rect x="106.14634146341464" y="118.6341463414634" width="6.2439024390243905" height="6.2439024390243905" style="fill:#000000;shape-rendering:crispEdges;"/>
  <rect x="112.39024390243904" y="118.6341463414634" width="6.2439024390243905" height="6.2439024390243905" style="fill:#000000;shape-rendering:crispEdges;"/>
  <rect x="118.6341463414634" y="118.6341463414634" width="6.2439024390243905" height="6.2439024390243905" style="fill:#000000;shape-rendering:crispEdges;"/>
  <rect x="124.8780487804878" y="118.6341463414634" width="6.2439024390243905" height="6.2439024390243905" style="fill:#000000;shape-rendering:crispEdges;"/>
  <rect x="137.3658536585366" y="118.6341463414634" width="6.2439024390243905" height="6.2439024390243905" style="fill:#000000;shape-rendering:crispEdges;"/>
  <rect x="156.09756097560975" y="118.6341463414634" width="6.2439024390243905" height="6.2439024390243905" style="fill:#000000;shape-rendering:crispEdges;"/>
  <rect x="187.3170731707317" y="118.6341463414634" width="6.2439024390243905" height="6.2439024390243905" style="fill:#000000;shape-rendering:crispEdges;"/>
  <rect x="193.5609756097561" y="118.6341463414634" width="6.2439024390243905" height="6.2439024390243905" style="fill:#000000;shape-rendering:crispEdges;"/>
  <rect x="206.0487804878049" y="118.6341463414634" width="6.2439024390243905" height="6.2439024390243905" style="fill:#000000;shape-rendering:crispEdges;"/>
  <rect x="212.29268292682926" y="118.6341463414634" width="6.2439024390243905" height="6.2439024390243905" style="fill:#000000;shape-rendering:crispEdges;"/>
  <rect x="218.53658536585365" y="118.6341463414634" width="6.2439024390243905" height="6.2439024390243905" style="fill:#000000;shape-rendering:crispEdges;"/>
  <rect x="224.78048780487805" y="118.6341463414634" width="6.2439024390243905" height="6.2439024390243905" style="fill:#000000;shape-rendering:crispEdges;"/>
  <rect x="24.975609756097562" y="124.8780487804878" width="6.2439024390243905" height="6.2439024390243905" style="fill:#000000;shape-rendering:crispEdges;"/>
  <rect x="49.951219512195124" y="124.8780487804878" width="6.2439024390243905" height="6.2439024390243905" style="fill:#000000;shape-rendering:crispEdges;"/>
  <rect x="62.43902439024391" y="124.8780487804878" width="6.2439024390243905" height="6.2439024390243905" style="fill:#000000;shape-rendering:crispEdges;"/>
  <rect x="68.6829268292683" y="124.8780487804878" width="6.2439024390243905" height="6.2439024390243905" style="fill:#000000;shape-rendering:crispEdges;"/>
  <rect x="81.17073170731707" y="124.8780487804878" width="6.2439024390243905" height="6.2439024390243905" style="fill:#000000;shape-rendering:crispEdges;"/>
  <rect x="87.41463414634146" y="124.8780487804878" width="6.2439024390243905" height="6.2439024390243905" style="fill:#000000;shape-rendering:crispEdges;"/>
  <rect x="93.65853658536585" y="124.8780487804878" width="6.2439024390243905" height="6.2439024390243905" style="fill:#000000;shape-rendering:crispEdges;"/>
  <rect x="99.90243902439025" y="124.8780487804878" width="6.2439024390243905" height="6.2439024390243905" style="fill:#000000;shape-rendering:crispEdges;"/>
  <rect x="112.39024390243904" y="124.8780487804878" width="6.2439024390243905" height="6.2439024390243905" style="fill:#000000;shape-rendering:crispEdges;"/>
  <rect x="124.8780487804878" y="124.8780487804878" width="6.2439024390243905" height="6.2439024390243905" style="fill:#000000;shape-rendering:crispEdges;"/>
  <rect x="131.1219512195122" y="124.8780487804878" width="6.2439024390243905" height="6.2439024390243905" style="fill:#000000;shape-rendering:crispEdges;"/>
  <rect x="137.3658536585366" y="124.8780487804878" width="6.2439024390243905" height="6.2439024390243905" style="fill:#000000;shape-rendering:crispEdges;"/>
  <rect x="143.609756097561" y="124.8780487804878" width="6.2439024390243905" height="6.2439024390243905" style="fill:#000000;shape-rendering:crispEdges;"/>
  <rect x="156.09756097560975" y="124.8780487804878" width="6.2439024390243905" height="6.2439024390243905" style="fill:#000000;shape-rendering:crispEdges;"/>
  <rect x="168.58536585365854" y="124.8780487804878" width="6.2439024390243905" height="6.2439024390243905" style="fill:#000000;shape-rendering:crispEdges;"/>
  <rect x="181.0731707317073" y="124.8780487804878" width="6.2439024390243905" height="6.2439024390243905" style="fill:#000000;shape-rendering:crispEdges;"/>
  <rect x="193.5609756097561" y="124.8780487804878" width="6.2439024390243905" height="6.2439024390243905" style="fill:#000000;shape-rendering:crispEdges;"/>
  <rect x="199.8048780487805" y="124.8780487804878" width="6.2439024390243905" height="6.2439024390243905" style="fill:#000000;shape-rendering:crispEdges;"/>
  <rect x="212.29268292682926" y="124.8780487804878" width="6.2439024390243905" height="6.2439024390243905" style="fill:#000000;shape-rendering:crispEdges;"/>
  <rect x="49.951219512195124" y="131.1219512195122" width="6.2439024390243905" height="6.2439024390243905" style="fill:#000000;shape-rendering:crispEdges;"/>
  <rect x="81.17073170731707" y="131.1219512195122" width="6.2439024390243905" height="6.2439024390243905" style="fill:#000000;shape-rendering:crispEdges;"/>
  <rect x="87.41463414634146" y="131.1219512195122" width="6.2439024390243905" height="6.2439024390243905" style="fill:#000000;shape-rendering:crispEdges;"/>
  <rect x="93.65853658536585" y="131.1219512195122" width="6.2439024390243905" height="6.2439024390243905" style="fill:#000000;shape-rendering:crispEdges;"/>
  <rect x="106.14634146341464" y="131.1219512195122" width="6.2439024390243905" height="6.2439024390243905" style="fill:#000000;shape-rendering:crispEdges;"/>
  <rect x="124.8780487804878" y="131.1219512195122" width="6.2439024390243905" height="6.2439024390243905" style="fill:#000000;shape-rendering:crispEdges;"/>
  <rect x="156.09756097560975" y="131.1219512195122" width="6.2439024390243905" height="6.2439024390243905" style="fill:#000000;shape-rendering:crispEdges;"/>
  <rect x="162.34146341463415" y="131.1219512195122" width="6.2439024390243905" height="6.2439024390243905" style="fill:#000000;shape-rendering:crispEdges;"/>
  <rect x="174.82926829268294" y="131.1219512195122" width="6.2439024390243905" height="6.2439024390243905" style="fill:#000000;shape-rendering:crispEdges;"/>
  <rect x="181.0731707317073" y="131.1219512195122" width="6.2439024390243905" height="6.2439024390243905" style="fill:#000000;shape-rendering:crispEdges;"/>
  <rect x="187.3170731707317" y="131.1219512195122" width="6.2439024390243905" height="6.2439024390243905" style="fill:#000000;shape-rendering:crispEdges;"/>
  <rect x="193.5609756097561" y="131.1219512195122" width="6.2439024390243905" height="6.2439024390243905" style="fill:#000000;shape-rendering:crispEdges;"/>
  <rect x="212.29268292682926" y="131.1219512195122" width="6.2439024390243905" height="6.2439024390243905" style="fill:#000000;shape-rendering:crispEdges;"/>
  <rect x="224.78048780487805" y="131.1219512195122" width="6.2439024390243905" height="6.2439024390243905" style="fill:#000000;shape-rendering:crispEdges;"/>
  <rect x="24.975609756097562" y="137.3658536585366" width="6.2439024390243905" height="6.2439024390243905" style="fill:#000000;shape-rendering:crispEdges;"/>
  <rect x="31.21951219512195" y="137.3658536585366" width="6.2439024390243905" height="6.2439024390243905" style="fill:#000000;shape-rendering:crispEdges;"/>
  <rect x="43.707317073170735" y="137.3658536585366" width="6.2439024390243905" height="6.2439024390243905" style="fill:#000000;shape-rendering:crispEdges;"/>
  <rect x="56.19512195121951" y="137.3658536585366" width="6.2439024390243905" height="6.2439024390243905" style="fill:#000000;shape-rendering:crispEdges;"/>
  <rect x="62.43902439024391" y="137.3658536585366" width="6.2439024390243905" height="6.2439024390243905" style="fill:#000000;shape-rendering:crispEdges;"/>
  <rect x="81.17073170731707" y="137.3658536585366" width="6.2439024390243905" height="6.2439024390243905" style="fill:#000000;shape-rendering:crispEdges;"/>
  <rect x="93.65853658536585" y="137.3658536585366" width="6.2439024390243905" height="6.2439024390243905" style="fill:#000000;shape-rendering:crispEdges;"/>
  <rect x="106.14634146341464" y="137.3658536585366" width="6.2439024390243905" height="6.2439024390243905" style="fill:#000000;shape-rendering:crispEdges;"/>
  <rect x="118.6341463414634" y="137.3658536585366" width="6.2439024390243905" height="6.2439024390243905" style="fill:#000000;shape-rendering:crispEdges;"/>
  <rect x="124.8780487804878" y="137.3658536585366" width="6.2439024390243905" height="6.2439024390243905" style="fill:#000000;shape-rendering:crispEdges;"/>
  <rect x="137.3658536585366" y="137.3658536585366" width="6.2439024390243905" height="6.2439024390243905" style="fill:#000000;shape-rendering:crispEdges;"/>
  <rect x="149.85365853658536" y="137.3658536585366" width="6.2439024390243905" height="6.2439024390243905" style="fill:#000000;shape-rendering:crispEdges;"/>
  <rect x="162.34146341463415" y="137.3658536585366" width="6.2439024390243905" height="6.2439024390243905" style="fill:#000000;shape-rendering:crispEdges;"/>
  <rect x="168.58536585365854" y="137.3658536585366" width="6.2439024390243905" height="6.2439024390243905" style="fill:#000000;shape-rendering:crispEdges;"/>
  <rect x="181.0731707317073" y="137.3658536585366" width="6.2439024390243905" height="6.2439024390243905" style="fill:#000000;shape-rendering:crispEdges;"/>
  <rect x="193.5609756097561" y="137.3658536585366" width="6.2439024390243905" height="6.2439024390243905" style="fill:#000000;shape-rendering:crispEdges;"/>
  <rect x="206.0487804878049" y="137.3658536585366" width="6.2439024390243905" height="6.2439024390243905" style="fill:#000000;shape-rendering:crispEdges;"/>
  <rect x="218.53658536585365" y="137.3658536585366" width="6.2439024390243905" height="6.2439024390243905" style="fill:#000000;shape-rendering:crispEdges;"/>
  <rect x="56.19512195121951" y="143.609756097561" width="6.2439024390243905" height="6.2439024390243905" style="fill:#000000;shape-rendering:crispEdges;"/>
  <rect x="68.6829268292683" y="143.609756097561" width="6.2439024390243905" height="6.2439024390243905" style="fill:#000000;shape-rendering:crispEdges;"/>
  <rect x="74.92682926829269" y="143.609756097561" width="6.2439024390243905" height="6.2439024390243905" style="fill:#000000;shape-rendering:crispEdges;"/>
  <rect x="99.90243902439025" y="143.609756097561" width="6.2439024390243905" height="6.2439024390243905" style="fill:#000000;shape-rendering:crispEdges;"/>
  <rect x="162.34146341463415" y="143.609756097561" width="6.2439024390243905" height="6.2439024390243905" style="fill:#000000;shape-rendering:crispEdges;"/>
  <rect x="168.58536585365854" y="143.609756097561" width="6.2439024390243905" height="6.2439024390243905" style="fill:#000000;shape-rendering:crispEdges;"/>
  <rect x="174.82926829268294" y="143.609756097561" width="6.2439024390243905" height="6.2439024390243905" style="fill:#000000;shape-rendering:crispEdges;"/>
  <rect x="193.5609756097561" y="143.609756097561" width="6.2439024390243905" height="6.2439024390243905" style="fill:#000000;shape-rendering:crispEdges;"/>
  <rect x="199.8048780487805" y="143.609756097561" width="6.2439024390243905" height="6.2439024390243905" style="fill:#000000;shape-rendering:crispEdges;"/>
  <rect x="24.975609756097562" y="149.85365853658536" width="6.2439024390243905" height="6.2439024390243905" style="fill:#000000;shape-rendering:crispEdges;"/>
  <rect x="31.21951219512195" y="149.85365853658536" width="6.2439024390243905" height="6.2439024390243905" style="fill:#000000;shape-rendering:crispEdges;"/>
  <rect x="49.951219512195124" y="149.85365853658536" width="6.2439024390243905" height="6.2439024390243905" style="fill:#000000;shape-rendering:crispEdges;"/>
  <rect x="62.43902439024391" y="149.85365853658536" width="6.2439024390243905" height="6.2439024390243905" style="fill:#000000;shape-rendering:crispEdges;"/>
  <rect x="68.6829268292683" y="149.85365853658536" width="6.2439024390243905" height="6.2439024390243905" style="fill:#000000;shape-rendering:crispEdges;"/>
  <rect x="81.17073170731707" y="149.85365853658536" width="6.2439024390243905" height="6.2439024390243905" style="fill:#000000;shape-rendering:crispEdges;"/>
  <rect x="87.41463414634146" y="149.85365853658536" width="6.2439024390243905" height="6.2439024390243905" style="fill:#000000;shape-rendering:crispEdges;"/>
  <rect x="93.65853658536585" y="149.85365853658536" width="6.2439024390243905" height="6.2439024390243905" style="fill:#000000;shape-rendering:crispEdges;"/>
  <rect x="99.90243902439025" y="149.85365853658536" width="6.2439024390243905" height="6.2439024390243905" style="fill:#000000;shape-rendering:crispEdges;"/>
  <rect x="112.39024390243904" y="149.85365853658536" width="6.2439024390243905" height="6.2439024390243905" style="fill:#000000;shape-rendering:crispEdges;"/>
  <rect x="131.1219512195122" y="149.85365853658536" width="6.2439024390243905" height="6.2439024390243905" style="fill:#000000;shape-rendering:crispEdges;"/>
  <rect x="137.3658536585366" y="149.85365853658536" width="6.2439024390243905" height="6.2439024390243905" style="fill:#000000;shape-rendering:crispEdges;"/>
  <rect x="143.609756097561" y="149.85365853658536" width="6.2439024390243905" height="6.2439024390243905" style="fill:#000000;shape-rendering:crispEdges;"/>
  <rect x="156.09756097560975" y="149.85365853658536" width="6.2439024390243905" height="6.2439024390243905" style="fill:#000000;shape-rendering:crispEdges;"/>
  <rect x="168.58536585365854" y="149.85365853658536" width="6.2439024390243905" height="6.2439024390243905" style="fill:#000000;shape-rendering:crispEdges;"/>
  <rect x="181.0731707317073" y="149.85365853658536" width="6.2439024390243905" height="6.2439024390243905" style="fill:#000000;shape-rendering:crispEdges;"/>
  <rect x="187.3170731707317" y="149.85365853658536" width="6.2439024390243905" height="6.2439024390243905" style="fill:#000000;shape-rendering:crispEdges;"/>
  <rect x="199.8048780487805" y="149.85365853658536" width="6.2439024390243905" height="6.2439024390243905" style="fill:#000000;shape-rendering:crispEdges;"/>
  <rect x="212.29268292682926" y="149.85365853658536" width="6.2439024390243905" height="6.2439024390243905" style="fill:#000000;shape-rendering:crispEdges;"/>
  <rect x="224.78048780487805" y="149.85365853658536" width="6.2439024390243905" height="6.2439024390243905" style="fill:#000000;shape-rendering:crispEdges;"/>
  <rect x="24.975609756097562" y="156.09756097560975" width="6.2439024390243905" height="6.2439024390243905" style="fill:#000000;shape-rendering:crispEdges;"/>
  <rect x="31.21951219512195" y="156.09756097560975" width="6.2439024390243905" height="6.2439024390243905" style="fill:#000000;shape-rendering:crispEdges;"/>
  <rect x="37.463414634146346" y="156.09756097560975" width="6.2439024390243905" height="6.2439024390243905" style="fill:#000000;shape-rendering:crispEdges;"/>
  <rect x="43.707317073170735" y="156.09756097560975" width="6.2439024390243905" height="6.2439024390243905" style="fill:#000000;shape-rendering:crispEdges;"/>
  <rect x="49.951219512195124" y="156.09756097560975" width="6.2439024390243905" height="6.2439024390243905" style="fill:#000000;shape-rendering:crispEdges;"/>
  <rect x="68.6829268292683" y="156.09756097560975" width="6.2439024390243905" height="6.2439024390243905" style="fill:#000000;shape-rendering:crispEdges;"/>
  <rect x="99.90243902439025" y="156.09756097560975" width="6.2439024390243905" height="6.2439024390243905" style="fill:#000000;shape-rendering:crispEdges;"/>
  <rect x="118.6341463414634" y="156.09756097560975" width="6.2439024390243905" height="6.2439024390243905" style="fill:#000000;shape-rendering:crispEdges;"/>
  <rect x="131.1219512195122" y="156.09756097560975" width="6.2439024390243905" height="6.2439024390243905" style="fill:#000000;shape-rendering:crispEdges;"/>
  <rect x="137.3658536585366" y="156.09756097560975" width="6.2439024390243905" height="6.2439024390243905" style="fill:#000000;shape-rendering:crispEdges;"/>
  <rect x="143.609756097561" y="156.09756097560975" width="6.2439024390243905" height="6.2439024390243905" style="fill:#000000;shape-rendering:crispEdges;"/>
  <rect x="149.85365853658536" y="156.09756097560975" width="6.2439024390243905" height="6.2439024390243905" style="fill:#000000;shape-rendering:crispEdges;"/>
  <rect x="168.58536585365854" y="156.09756097560975" width="6.2439024390243905" height="6.2439024390243905" style="fill:#000000;shape-rendering:crispEdges;"/>
  <rect x="199.8048780487805" y="156.09756097560975" width="6.2439024390243905" height="6.2439024390243905" style="fill:#000000;shape-rendering:crispEdges;"/>
  <rect x="206.0487804878049" y="156.09756097560975" width="6.2439024390243905" height="6.2439024390243905" style="fill:#000000;shape-rendering:crispEdges;"/>
  <rect x="218.53658536585365" y="156.09756097560975" width="6.2439024390243905" height="6.2439024390243905" style="fill:#000000;shape-rendering:crispEdges;"/>
  <rect x="37.463414634146346" y="162.34146341463415" width="6.2439024390243905" height="6.2439024390243905" style="fill:#000000;shape-rendering:crispEdges;"/>
  <rect x="49.951219512195124" y="162.34146341463415" width="6.2439024390243905" height="6.2439024390243905" style="fill:#000000;shape-rendering:crispEdges;"/>
  <rect x="62.43902439024391" y="162.34146341463415" width="6.2439024390243905" height="6.2439024390243905" style="fill:#000000;shape-rendering:crispEdges;"/>
  <rect x="74.92682926829269" y="162.34146341463415" width="6.2439024390243905" height="6.2439024390243905" style="fill:#000000;shape-rendering:crispEdges;"/>
  <rect x="87.41463414634146" y="162.34146341463415" width="6.2439024390243905" height="6.2439024390243905" style="fill:#000000;shape-rendering:crispEdges;"/>
  <rect x="99.90243902439025" y="162.34146341463415" width="6.2439024390243905" height="6.2439024390243905" style="fill:#000000;shape-rendering:crispEdges;"/>
  <rect x="112.39024390243904" y="162.34146341463415" width="6.2439024390243905" height="6.2439024390243905" style="fill:#000000;shape-rendering:crispEdges;"/>
  <rect x="118.6341463414634" y="162.34146341463415" width="6.2439024390243905" height="6.2439024390243905" style="fill:#000000;shape-rendering:crispEdges;"/>
  <rect x="124.8780487804878" y="162.34146341463415" width="6.2439024390243905" height="6.2439024390243905" style="fill:#000000;shape-rendering:crispEdges;"/>
  <rect x="143.609756097561" y="162.34146341463415" width="6.2439024390243905" height="6.2439024390243905" style="fill:#000000;shape-rendering:crispEdges;"/>
  <rect x="156.09756097560975" y="162.34146341463415" width="6.2439024390243905" height="6.2439024390243905" style="fill:#000000;shape-rendering:crispEdges;"/>
  <rect x="162.34146341463415" y="162.34146341463415" width="6.2439024390243905" height="6.2439024390243905" style="fill:#000000;shape-rendering:crispEdges;"/>
  <rect x="168.58536585365854" y="162.34146341463415" width="6.2439024390243905" height="6.2439024390243905" style="fill:#000000;shape-rendering:crispEdges;"/>
  <rect x="174.82926829268294" y="162.34146341463415" width="6.2439024390243905" height="6.2439024390243905" style="fill:#000000;shape-rendering:crispEdges;"/>
  <rect x="187.3170731707317" y="162.34146341463415" width="6.2439024390243905" height="6.2439024390243905" style="fill:#000000;shape-rendering:crispEdges;"/>
  <rect x="199.8048780487805" y="162.34146341463415" width="6.2439024390243905" height="6.2439024390243905" style="fill:#000000;shape-rendering:crispEdges;"/>
  <rect x="212.29268292682926" y="162.34146341463415" width="6.2439024390243905" height="6.2439024390243905" style="fill:#000000;shape-rendering:crispEdges;"/>
  <rect x="56.19512195121951" y="168.58536585365854" width="6.2439024390243905" height="6.2439024390243905" style="fill:#000000;shape-rendering:crispEdges;"/>
  <rect x="68.6829268292683" y="168.58536585365854" width="6.2439024390243905" height="6.2439024390243905" style="fill:#000000;shape-rendering:crispEdges;"/>
  <rect x="74.92682926829269" y="168.58536585365854" width="6.2439024390243905" height="6.2439024390243905" style="fill:#000000;shape-rendering:crispEdges;"/>
  <rect x="81.17073170731707" y="168.58536585365854" width="6.2439024390243905" height="6.2439024390243905" style="fill:#000000;shape-rendering:crispEdges;"/>
  <rect x="118.6341463414634" y="168.58536585365854" width="6.2439024390243905" height="6.2439024390243905" style="fill:#000000;shape-rendering:crispEdges;"/>
  <rect x="124.8780487804878" y="168.58536585365854" width="6.2439024390243905" height="6.2439024390243905" style="fill:#000000;shape-rendering:crispEdges;"/>
  <rect x="131.1219512195122" y="168.58536585365854" width="6.2439024390243905" height="6.2439024390243905" style="fill:#000000;shape-rendering:crispEdges;"/>
  <rect x="156.09756097560975" y="168.58536585365854" width="6.2439024390243905" height="6.2439024390243905" style="fill:#000000;shape-rendering:crispEdges;"/>
  <rect x="168.58536585365854" y="168.58536585365854" width="6.2439024390243905" height="6.2439024390243905" style="fill:#000000;shape-rendering:crispEdges;"/>
  <rect x="174.82926829268294" y="168.58536585365854" width="6.2439024390243905" height="6.2439024390243905" style="fill:#000000;shape-rendering:crispEdges;"/>
  <rect x="187.3170731707317" y="168.58536585365854" width="6.2439024390243905" height="6.2439024390243905" style="fill:#000000;shape-rendering:crispEdges;"/>
  <rect x="193.5609756097561" y="168.58536585365854" width="6.2439024390243905" height="6.2439024390243905" style="fill:#000000;shape-rendering:crispEdges;"/>
  <rect x="212.29268292682926" y="168.58536585365854" width="6.2439024390243905" height="6.2439024390243905" style="fill:#000000;shape-rendering:crispEdges;"/>
  <rect x="218.53658536585365" y="168.58536585365854" width="6.2439024390243905" height="6.2439024390243905" style="fill:#000000;shape-rendering:crispEdges;"/>
  <rect x="43.707317073170735" y="174.82926829268294" width="6.2439024390243905" height="6.2439024390243905" style="fill:#000000;shape-rendering:crispEdges;"/>
  <rect x="56.19512195121951" y="174.82926829268294" width="6.2439024390243905" height="6.2439024390243905" style="fill:#000000;shape-rendering:crispEdges;"/>
  <rect x="62.43902439024391" y="174.82926829268294" width="6.2439024390243905" height="6.2439024390243905" style="fill:#000000;shape-rendering:crispEdges;"/>
  <rect x="74.92682926829269" y="174.82926829268294" width="6.2439024390243905" height="6.2439024390243905" style="fill:#000000;shape-rendering:crispEdges;"/>
  <rect x="87.41463414634146" y="174.82926829268294" width="6.2439024390243905" height="6.2439024390243905" style="fill:#000000;shape-rendering:crispEdges;"/>
  <rect x="99.90243902439025" y="174.82926829268294" width="6.2439024390243905" height="6.2439024390243905" style="fill:#000000;shape-rendering:crispEdges;"/>
  <rect x="106.14634146341464" y="174.82926829268294" width="6.2439024390243905" height="6.2439024390243905" style="fill:#000000;shape-rendering:crispEdges;"/>
  <rect x="118.6341463414634" y="174.82926829268294" width="6.2439024390243905" height="6.2439024390243905" style="fill:#000000;shape-rendering:crispEdges;"/>
  <rect x="143.609756097561" y="174.82926829268294" width="6.2439024390243905" height="6.2439024390243905" style="fill:#000000;shape-rendering:crispEdges;"/>
  <rect x="156.09756097560975" y="174.82926829268294" width="6.2439024390243905" height="6.2439024390243905" style="fill:#000000;shape-rendering:crispEdges;"/>
  <rect x="168.58536585365854" y="174.82926829268294" width="6.2439024390243905" height="6.2439024390243905" style="fill:#000000;shape-rendering:crispEdges;"/>
  <rect x="174.82926829268294" y="174.82926829268294" width="6.2439024390243905" height="6.2439024390243905" style="fill:#000000;shape-rendering:crispEdges;"/>
  <rect x="181.0731707317073" y="174.82926829268294" width="6.2439024390243905" height="6.2439024390243905" style="fill:#000000;shape-rendering:crispEdges;"/>
  <rect x="187.3170731707317" y="174.82926829268294" width="6.2439024390243905" height="6.2439024390243905" style="fill:#000000;shape-rendering:crispEdges;"/>
  <rect x="193.5609756097561" y="174.82926829268294" width="6.2439024390243905" height="6.2439024390243905" style="fill:#000000;shape-rendering:crispEdges;"/>
  <rect x="199.8048780487805" y="174.82926829268294" width="6.2439024390243905" height="6.2439024390243905" style="fill:#000000;shape-rendering:crispEdges;"/>
  <rect x="206.0487804878049" y="174.82926829268294" width="6.2439024390243905" height="6.2439024390243905" style="fill:#000000;shape-rendering:crispEdges;"/>
  <rect x="224.78048780487805" y="174.82926829268294" width="6.2439024390243905" height="6.2439024390243905" style="fill:#000000;shape-rendering:crispEdges;"/>
  <rect x="93.65853658536585" y="181.0731707317073" width="6.2439024390243905" height="6.2439024390243905" style="fill:#000000;shape-rendering:crispEdges;"/>
  <rect x="99.90243902439025" y="181.0731707317073" width="6.2439024390243905" height="6.2439024390243905" style="fill:#000000;shape-rendering:crispEdges;"/>
  <rect x="112.39024390243904" y="181.0731707317073" width="6.2439024390243905" height="6.2439024390243905" style="fill:#000000;shape-rendering:crispEdges;"/>
  <rect x="131.1219512195122" y="181.0731707317073" width="6.2439024390243905" height="6.2439024390243905" style="fill:#000000;shape-rendering:crispEdges;"/>
  <rect x="137.3658536585366" y="181.0731707317073" width="6.2439024390243905" height="6.2439024390243905" style="fill:#000000;shape-rendering:crispEdges;"/>
  <rect x="143.609756097561" y="181.0731707317073" width="6.2439024390243905" height="6.2439024390243905" style="fill:#000000;shape-rendering:crispEdges;"/>
  <rect x="149.85365853658536" y="181.0731707317073" width="6.2439024390243905" height="6.2439024390243905" style="fill:#000000;shape-rendering:crispEdges;"/>
  <rect x="174.82926829268294" y="181.0731707317073" width="6.2439024390243905" height="6.2439024390243905" style="fill:#000000;shape-rendering:crispEdges;"/>
  <rect x="199.8048780487805" y="181.0731707317073" width="6.2439024390243905" height="6.2439024390243905" style="fill:#000000;shape-rendering:crispEdges;"/>
  <rect x="206.0487804878049" y="181.0731707317073" width="6.2439024390243905" height="6.2439024390243905" style="fill:#000000;shape-rendering:crispEdges;"/>
  <rect x="218.53658536585365" y="181.0731707317073" width="6.2439024390243905" height="6.2439024390243905" style="fill:#000000;shape-rendering:crispEdges;"/>
  <rect x="224.78048780487805" y="181.0731707317073" width="6.2439024390243905" height="6.2439024390243905" style="fill:#000000;shape-rendering:crispEdges;"/>
  <rect x="24.975609756097562" y="187.3170731707317" width="6.2439024390243905" height="6.2439024390243905" style="fill:#000000;shape-rendering:crispEdges;"/>
  <rect x="31.21951219512195" y="187.3170731707317" width="6.2439024390243905" height="6.2439024390243905" style="fill:#000000;shape-rendering:crispEdges;"/>
  <rect x="37.463414634146346" y="187.3170731707317" width="6.2439024390243905" height="6.2439024390243905" style="fill:#000000;shape-rendering:crispEdges;"/>
  <rect x="43.707317073170735" y="187.3170731707317" width="6.2439024390243905" height="6.2439024390243905" style="fill:#000000;shape-rendering:crispEdges;"/>
  <rect x="49.951219512195124" y="187.3170731707317" width="6.2439024390243905" height="6.2439024390243905" style="fill:#000000;shape-rendering:crispEdges;"/>
  <rect x="56.19512195121951" y="187.3170731707317" width="6.2439024390243905" height="6.2439024390243905" style="fill:#000000;shape-rendering:crispEdges;"/>
  <rect x="62.43902439024391" y="187.3170731707317" width="6.2439024390243905" height="6.2439024390243905" style="fill:#000000;shape-rendering:crispEdges;"/>
  <rect x="74.92682926829269" y="187.3170731707317" width="6.2439024390243905" height="6.2439024390243905" style="fill:#000000;shape-rendering:crispEdges;"/>
  <rect x="93.65853658536585" y="187.3170731707317" width="6.2439024390243905" height="6.2439024390243905" style="fill:#000000;shape-rendering:crispEdges;"/>
  <rect x="106.14634146341464" y="187.3170731707317" width="6.2439024390243905" height="6.2439024390243905" style="fill:#000000;shape-rendering:crispEdges;"/>
  <rect x="112.39024390243904" y="187.3170731707317" width="6.2439024390243905" height="6.2439024390243905" style="fill:#000000;shape-rendering:crispEdges;"/>
  <rect x="118.6341463414634" y="187.3170731707317" width="6.2439024390243905" height="6.2439024390243905" style="fill:#000000;shape-rendering:crispEdges;"/>
  <rect x="131.1219512195122" y="187.3170731707317" width="6.2439024390243905" height="6.2439024390243905" style="fill:#000000;shape-rendering:crispEdges;"/>
  <rect x="137.3658536585366" y="187.3170731707317" width="6.2439024390243905" height="6.2439024390243905" style="fill:#000000;shape-rendering:crispEdges;"/>
  <rect x="143.609756097561" y="187.3170731707317" width="6.2439024390243905" height="6.2439024390243905" style="fill:#000000;shape-rendering:crispEdges;"/>
  <rect x="156.09756097560975" y="187.3170731707317" width="6.2439024390243905" height="6.2439024390243905" style="fill:#000000;shape-rendering:crispEdges;"/>
  <rect x="162.34146341463415" y="187.3170731707317" width="6.2439024390243905" height="6.2439024390243905" style="fill:#000000;shape-rendering:crispEdges;"/>
  <rect x="168.58536585365854" y="187.3170731707317" width="6.2439024390243905" height="6.2439024390243905" style="fill:#000000;shape-rendering:crispEdges;"/>
  <rect x="174.82926829268294" y="187.3170731707317" width="6.2439024390243905" height="6.2439024390243905" style="fill:#000000;shape-rendering:crispEdges;"/>
  <rect x="187.3170731707317" y="187.3170731707317" width="6.2439024390243905" height="6.2439024390243905" style="fill:#000000;shape-rendering:crispEdges;"/>
  <rect x="199.8048780487805" y="187.3170731707317" width="6.2439024390243905" height="6.2439024390243905" style="fill:#000000;shape-rendering:crispEdges;"/>
  <rect x="218.53658536585365" y="187.3170731707317" width="6.2439024390243905" height="6.2439024390243905" style="fill:#000000;shape-rendering:crispEdges;"/>
  <rect x="24.975609756097562" y="193.5609756097561" width="6.2439024390243905" height="6.2439024390243905" style="fill:#000000;shape-rendering:crispEdges;"/>
  <rect x="62.43902439024391" y="193.5609756097561" width="6.2439024390243905" height="6.2439024390243905" style="fill:#000000;shape-rendering:crispEdges;"/>
  <rect x="74.92682926829269" y="193.5609756097561" width="6.2439024390243905" height="6.2439024390243905" style="fill:#000000;shape-rendering:crispEdges;"/>
  <rect x="87.41463414634146" y="193.5609756097561" width="6.2439024390243905" height="6.2439024390243905" style="fill:#000000;shape-rendering:crispEdges;"/>
  <rect x="93.65853658536585" y="193.5609756097561" width="6.2439024390243905" height="6.2439024390243905" style="fill:#000000;shape-rendering:crispEdges;"/>
  <rect x="99.90243902439025" y="193.5609756097561" width="6.2439024390243905" height="6.2439024390243905" style="fill:#000000;shape-rendering:crispEdges;"/>
  <rect x="112.39024390243904" y="193.5609756097561" width="6.2439024390243905" height="6.2439024390243905" style="fill:#000000;shape-rendering:crispEdges;"/>
  <rect x="131.1219512195122" y="193.5609756097561" width="6.2439024390243905" height="6.2439024390243905" style="fill:#000000;shape-rendering:crispEdges;"/>
  <rect x="137.3658536585366" y="193.5609756097561" width="6.2439024390243905" height="6.2439024390243905" style="fill:#000000;shape-rendering:crispEdges;"/>
  <rect x="149.85365853658536" y="193.5609756097561" width="6.2439024390243905" height="6.2439024390243905" style="fill:#000000;shape-rendering:crispEdges;"/>
  <rect x="156.09756097560975" y="193.5609756097561" width="6.2439024390243905" height="6.2439024390243905" style="fill:#000000;shape-rendering:crispEdges;"/>
  <rect x="162.34146341463415" y="193.5609756097561" width="6.2439024390243905" height="6.2439024390243905" style="fill:#000000;shape-rendering:crispEdges;"/>
  <rect x="174.82926829268294" y="193.5609756097561" width="6.2439024390243905" height="6.2439024390243905" style="fill:#000000;shape-rendering:crispEdges;"/>
  <rect x="199.8048780487805" y="193.5609756097561" width="6.2439024390243905" height="6.2439024390243905" style="fill:#000000;shape-rendering:crispEdges;"/>
  <rect x="206.0487804878049" y="193.5609756097561" width="6.2439024390243905" height="6.2439024390243905" style="fill:#000000;shape-rendering:crispEdges;"/>
  <rect x="218.53658536585365" y="193.5609756097561" width="6.2439024390243905" height="6.2439024390243905" style="fill:#000000;shape-rendering:crispEdges;"/>
  <rect x="224.78048780487805" y="193.5609756097561" width="6.2439024390243905" height="6.2439024390243905" style="fill:#000000;shape-rendering:crispEdges;"/>
  <rect x="24.975609756097562" y="199.8048780487805" width="6.2439024390243905" height="6.2439024390243905" style="fill:#000000;shape-rendering:crispEdges;"/>
  <rect x="37.463414634146346" y="199.8048780487805" width="6.2439024390243905" height="6.2439024390243905" style="fill:#000000;shape-rendering:crispEdges;"/>
  <rect x="43.707317073170735" y="199.8048780487805" width="6.2439024390243905" height="6.2439024390243905" style="fill:#000000;shape-rendering:crispEdges;"/>
  <rect x="49.951219512195124" y="199.8048780487805" width="6.2439024390243905" height="6.2439024390243905" style="fill:#000000;shape-rendering:crispEdges;"/>
  <rect x="62.43902439024391" y="199.8048780487805" width="6.2439024390243905" height="6.2439024390243905" style="fill:#000000;shape-rendering:crispEdges;"/>
  <rect x="74.92682926829269" y="199.8048780487805" width="6.2439024390243905" height="6.2439024390243905" style="fill:#000000;shape-rendering:crispEdges;"/>
  <rect x="87.41463414634146" y="199.8048780487805" width="6.2439024390243905" height="6.2439024390243905" style="fill:#000000;shape-rendering:crispEdges;"/>
  <rect x="93.65853658536585" y="199.8048780487805" width="6.2439024390243905" height="6.2439024390243905" style="fill:#000000;shape-rendering:crispEdges;"/>
  <rect x="99.90243902439025" y="199.8048780487805" width="6.2439024390243905" height="6.2439024390243905" style="fill:#000000;shape-rendering:crispEdges;"/>
  <rect x="112.39024390243904" y="199.8048780487805" width="6.2439024390243905" height="6.2439024390243905" style="fill:#000000;shape-rendering:crispEdges;"/>
  <rect x="118.6341463414634" y="199.8048780487805" width="6.2439024390243905" height="6.2439024390243905" style="fill:#000000;shape-rendering:crispEdges;"/>
  <rect x="124.8780487804878" y="199.8048780487805" width="6.2439024390243905" height="6.2439024390243905" style="fill:#000000;shape-rendering:crispEdges;"/>
  <rect x="149.85365853658536" y="199.8048780487805" width="6.2439024390243905" height="6.2439024390243905" style="fill:#000000;shape-rendering:crispEdges;"/>
  <rect x="162.34146341463415" y="199.8048780487805" width="6.2439024390243905" height="6.2439024390243905" style="fill:#000000;shape-rendering:crispEdges;"/>
  <rect x="174.82926829268294" y="199.8048780487805" width="6.2439024390243905" height="6.2439024390243905" style="fill:#000000;shape-rendering:crispEdges;"/>
  <rect x="181.0731707317073" y="199.8048780487805" width="6.2439024390243905" height="6.2439024390243905" style="fill:#000000;shape-rendering:crispEdges;"/>
  <rect x="187.3170731707317" y="199.8048780487805" width="6.2439024390243905" height="6.2439024390243905" style="fill:#000000;shape-rendering:crispEdges;"/>
  <rect x="193.5609756097561" y="199.8048780487805" width="6.2439024390243905" height="6.2439024390243905" style="fill:#000000;shape-rendering:crispEdges;"/>
  <rect x="199.8048780487805" y="199.8048780487805" width="6.2439024390243905" height="6.2439024390243905" style="fill:#000000;shape-rendering:crispEdges;"/>
  <rect x="218.53658536585365" y="199.8048780487805" width="6.2439024390243905" height="6.2439024390243905" style="fill:#000000;shape-rendering:crispEdges;"/>
  <rect x="24.975609756097562" y="206.0487804878049" width="6.2439024390243905" height="6.2439024390243905" style="fill:#000000;shape-rendering:crispEdges;"/>
  <rect x="37.463414634146346" y="206.0487804878049" width="6.2439024390243905" height="6.2439024390243905" style="fill:#000000;shape-rendering:crispEdges;"/>
  <rect x="43.707317073170735" y="206.0487804878049" width="6.2439024390243905" height="6.2439024390243905" style="fill:#000000;shape-rendering:crispEdges;"/>
  <rect x="49.951219512195124" y="206.0487804878049" width="6.2439024390243905" height="6.2439024390243905" style="fill:#000000;shape-rendering:crispEdges;"/>
  <rect x="62.43902439024391" y="206.0487804878049" width="6.2439024390243905" height="6.2439024390243905" style="fill:#000000;shape-rendering:crispEdges;"/>
  <rect x="74.92682926829269" y="206.0487804878049" width="6.2439024390243905" height="6.2439024390243905" style="fill:#000000;shape-rendering:crispEdges;"/>
  <rect x="81.17073170731707" y="206.0487804878049" width="6.2439024390243905" height="6.2439024390243905" style="fill:#000000;shape-rendering:crispEdges;"/>
  <rect x="87.41463414634146" y="206.0487804878049" width="6.2439024390243905" height="6.2439024390243905" style="fill:#000000;shape-rendering:crispEdges;"/>
  <rect x="93.65853658536585" y="206.0487804878049" width="6.2439024390243905" height="6.2439024390243905" style="fill:#000000;shape-rendering:crispEdges;"/>
  <rect x="118.6341463414634" y="206.0487804878049" width="6.2439024390243905" height="6.2439024390243905" style="fill:#000000;shape-rendering:crispEdges;"/>
  <rect x="137.3658536585366" y="206.0487804878049" width="6.2439024390243905" height="6.2439024390243905" style="fill:#000000;shape-rendering:crispEdges;"/>
  <rect x="143.609756097561" y="206.0487804878049" width="6.2439024390243905" height="6.2439024390243905" style="fill:#000000;shape-rendering:crispEdges;"/>
  <rect x="156.09756097560975" y="206.0487804878049" width="6.2439024390243905" height="6.2439024390243905" style="fill:#000000;shape-rendering:crispEdges;"/>
  <rect x="162.34146341463415" y="206.0487804878049" width="6.2439024390243905" height="6.2439024390243905" style="fill:#000000;shape-rendering:crispEdges;"/>
  <rect x="168.58536585365854" y="206.0487804878049" width="6.2439024390243905" height="6.2439024390243905" style="fill:#000000;shape-rendering:crispEdges;"/>
  <rect x="187.3170731707317" y="206.0487804878049" width="6.2439024390243905" height="6.2439024390243905" style="fill:#000000;shape-rendering:crispEdges;"/>
  <rect x="193.5609756097561" y="206.0487804878049" width="6.2439024390243905" height="6.2439024390243905" style="fill:#000000;shape-rendering:crispEdges;"/>
  <rect x="199.8048780487805" y="206.0487804878049" width="6.2439024390243905" height="6.2439024390243905" style="fill:#000000;shape-rendering:crispEdges;"/>
  <rect x="206.0487804878049" y="206.0487804878049" width="6.2439024390243905" height="6.2439024390243905" style="fill:#000000;shape-rendering:crispEdges;"/>
  <rect x="212.29268292682926" y="206.0487804878049" width="6.2439024390243905" height="6.2439024390243905" style="fill:#000000;shape-rendering:crispEdges;"/>
  <rect x="218.53658536585365" y="206.0487804878049" width="6.2439024390243905" height="6.2439024390243905" style="fill:#000000;shape-rendering:crispEdges;"/>
  <rect x="24.975609756097562" y="212.29268292682926" width="6.2439024390243905" height="6.2439024390243905" style="fill:#000000;shape-rendering:crispEdges;"/>
  <rect x="37.463414634146346" y="212.29268292682926" width="6.2439024390243905" height="6.2439024390243905" style="fill:#000000;shape-rendering:crispEdges;"/>
  <rect x="43.707317073170735" y="212.29268292682926" width="6.2439024390243905" height="6.2439024390243905" style="fill:#000000;shape-rendering:crispEdges;"/>
  <rect x="49.951219512195124" y="212.29268292682926" width="6.2439024390243905" height="6.2439024390243905" style="fill:#000000;shape-rendering:crispEdges;"/>
  <rect x="62.43902439024391" y="212.29268292682926" width="6.2439024390243905" height="6.2439024390243905" style="fill:#000000;shape-rendering:crispEdges;"/>
  <rect x="74.92682926829269" y="212.29268292682926" width="6.2439024390243905" height="6.2439024390243905" style="fill:#000000;shape-rendering:crispEdges;"/>
  <rect x="81.17073170731707" y="212.29268292682926" width="6.2439024390243905" height="6.2439024390243905" style="fill:#000000;shape-rendering:crispEdges;"/>
  <rect x="87.41463414634146" y="212.29268292682926" width="6.2439024390243905" height="6.2439024390243905" style="fill:#000000;shape-rendering:crispEdges;"/>
  <rect x="93.65853658536585" y="212.29268292682926" width="6.2439024390243905" height="6.2439024390243905" style="fill:#000000;shape-rendering:crispEdges;"/>
  <rect x="99.90243902439025" y="212.29268292682926" width="6.2439024390243905" height="6.2439024390243905" style="fill:#000000;shape-rendering:crispEdges;"/>
  <rect x="106.14634146341464" y="212.29268292682926" width="6.2439024390243905" height="6.2439024390243905" style="fill:#000000;shape-rendering:crispEdges;"/>
  <rect x="118.6341463414634" y="212.29268292682926" width="6.2439024390243905" height="6.2439024390243905" style="fill:#000000;shape-rendering:crispEdges;"/>
  <rect x="131.1219512195122" y="212.29268292682926" width="6.2439024390243905" height="6.2439024390243905" style="fill:#000000;shape-rendering:crispEdges;"/>
  <rect x="143.609756097561" y="212.29268292682926" width="6.2439024390243905" height="6.2439024390243905" style="fill:#000000;shape-rendering:crispEdges;"/>
  <rect x="149.85365853658536" y="212.29268292682926" width="6.2439024390243905" height="6.2439024390243905" style="fill:#000000;shape-rendering:crispEdges;"/>
  <rect x="168.58536585365854" y="212.29268292682926" width="6.2439024390243905" height="6.2439024390243905" style="fill:#000000;shape-rendering:crispEdges;"/>
  <rect x="181.0731707317073" y="212.29268292682926" width="6.2439024390243905" height="6.2439024390243905" style="fill:#000000;shape-rendering:crispEdges;"/>
  <rect x="187.3170731707317" y="212.29268292682926" width="6.2439024390243905" height="6.2439024390243905" style="fill:#000000;shape-rendering:crispEdges;"/>
  <rect x="193.5609756097561" y="212.29268292682926" width="6.2439024390243905" height="6.2439024390243905" style="fill:#000000;shape-rendering:crispEdges;"/>
  <rect x="199.8048780487805" y="212.29268292682926" width="6.2439024390243905" height="6.2439024390243905" style="fill:#000000;shape-rendering:crispEdges;"/>
  <rect x="218.53658536585365" y="212.29268292682926" width="6.2439024390243905" height="6.2439024390243905" style="fill:#000000;shape-rendering:crispEdges;"/>
  <rect x="24.975609756097562" y="218.53658536585365" width="6.2439024390243905" height="6.2439024390243905" style="fill:#000000;shape-rendering:crispEdges;"/>
  <rect x="62.43902439024391" y="218.53658536585365" width="6.2439024390243905" height="6.2439024390243905" style="fill:#000000;shape-rendering:crispEdges;"/>
  <rect x="87.41463414634146" y="218.53658536585365" width="6.2439024390243905" height="6.2439024390243905" style="fill:#000000;shape-rendering:crispEdges;"/>
  <rect x="93.65853658536585" y="218.53658536585365" width="6.2439024390243905" height="6.2439024390243905" style="fill:#000000;shape-rendering:crispEdges;"/>
  <rect x="99.90243902439025" y="218.53658536585365" width="6.2439024390243905" height="6.2439024390243905" style="fill:#000000;shape-rendering:crispEdges;"/>
  <rect x="112.39024390243904" y="218.53658536585365" width="6.2439024390243905" height="6.2439024390243905" style="fill:#000000;shape-rendering:crispEdges;"/>
  <rect x="118.6341463414634" y="218.53658536585365" width="6.2439024390243905" height="6.2439024390243905" style="fill:#000000;shape-rendering:crispEdges;"/>
  <rect x="124.8780487804878" y="218.53658536585365" width="6.2439024390243905" height="6.2439024390243905" style="fill:#000000;shape-rendering:crispEdges;"/>
  <rect x="137.3658536585366" y="218.53658536585365" width="6.2439024390243905" height="6.2439024390243905" style="fill:#000000;shape-rendering:crispEdges;"/>
  <rect x="149.85365853658536" y="218.53658536585365" width="6.2439024390243905" height="6.2439024390243905" style="fill:#000000;shape-rendering:crispEdges;"/>
  <rect x="162.34146341463415" y="218.53658536585365" width="6.2439024390243905" height="6.2439024390243905" style="fill:#000000;shape-rendering:crispEdges;"/>
  <rect x="168.58536585365854" y="218.53658536585365" width="6.2439024390243905" height="6.2439024390243905" style="fill:#000000;shape-rendering:crispEdges;"/>
  <rect x="181.0731707317073" y="218.53658536585365" width="6.2439024390243905" height="6.2439024390243905" style="fill:#000000;shape-rendering:crispEdges;"/>
  <rect x="187.3170731707317" y="218.53658536585365" width="6.2439024390243905" height="6.2439024390243905" style="fill:#000000;shape-rendering:crispEdges;"/>
  <rect x="193.5609756097561" y="218.53658536585365" width="6.2439024390243905" height="6.2439024390243905" style="fill:#000000;shape-rendering:crispEdges;"/>
  <rect x="224.78048780487805" y="218.53658536585365" width="6.2439024390243905" height="6.2439024390243905" style="fill:#000000;shape-rendering:crispEdges;"/>
  <rect x="24.975609756097562" y="224.78048780487805" width="6.2439024390243905" height="6.2439024390243905" style="fill:#000000;shape-rendering:crispEdges;"/>
  <rect x="31.21951219512195" y="224.78048780487805" width="6.2439024390243905" height="6.2439024390243905" style="fill:#000000;shape-rendering:crispEdges;"/>
  <rect x="37.463414634146346" y="224.78048780487805" width="6.2439024390243905" height="6.2439024390243905" style="fill:#000000;shape-rendering:crispEdges;"/>
  <rect x="43.707317073170735" y="224.78048780487805" width="6.2439024390243905" height="6.2439024390243905" style="fill:#000000;shape-rendering:crispEdges;"/>
  <rect x="49.951219512195124" y="224.78048780487805" width="6.2439024390243905" height="6.2439024390243905" style="fill:#000000;shape-rendering:crispEdges;"/>
  <rect x="56.19512195121951" y="224.78048780487805" width="6.2439024390243905" height="6.2439024390243905" style="fill:#000000;shape-rendering:crispEdges;"/>
  <rect x="62.43902439024391" y="224.78048780487805" width="6.2439024390243905" height="6.2439024390243905" style="fill:#000000;shape-rendering:crispEdges;"/>
  <rect x="81.17073170731707" y="224.78048780487805" width="6.2439024390243905" height="6.2439024390243905" style="fill:#000000;shape-rendering:crispEdges;"/>
  <rect x="124.8780487804878" y="224.78048780487805" width="6.2439024390243905" height="6.2439024390243905" style="fill:#000000;shape-rendering:crispEdges;"/>
  <rect x="131.1219512195122" y="224.78048780487805" width="6.2439024390243905" height="6.2439024390243905" style="fill:#000000;shape-rendering:crispEdges;"/>
  <rect x="168.58536585365854" y="224.78048780487805" width="6.2439024390243905" height="6.2439024390243905" style="fill:#000000;shape-rendering:crispEdges;"/>
  <rect x="174.82926829268294" y="224.78048780487805" width="6.2439024390243905" height="6.2439024390243905" style="fill:#000000;shape-rendering:crispEdges;"/>
  <rect x="181.0731707317073" y="224.78048780487805" width="6.2439024390243905" height="6.2439024390243905" style="fill:#000000;shape-rendering:crispEdges;"/>
  <rect x="206.0487804878049" y="224.78048780487805" width="6.2439024390243905" height="6.2439024390243905" style="fill:#000000;shape-rendering:crispEdges;"/>
</svg>
